<svg xmlns="http://www.w3.org/2000/svg" viewBox="0 0 7.9819 5.1882"><polygon points="2.011 3.459 2.011 5.188 7.982 5.188 7.982 3.459 2.047 3.459 2.011 3.459" fill="#030406"/><polygon points="2.011 0 2.011 1.729 2.047 1.729 7.982 1.729 7.982 0 2.011 0" fill="#0d753e"/><line x1="2.0108" y1="5.1882" x2="7.9819" y2="5.1882" fill="none"/><polygon points="2.011 1.729 2.011 1.729 2.011 3.459 2.047 3.459 7.982 3.459 7.982 2.933 7.982 2.199 7.982 1.729 2.047 1.729 2.011 1.729" fill="#fff"/><polygon points="2.011 1.729 2.011 1.729 2.011 0 0.642 0 0 0 0 1.729 0 3.459 0 5.188 0.85 5.188 1.995 5.188 2.011 5.188 2.011 3.459 2.011 1.729" fill="#eb0f05"/></svg>