<svg xmlns="http://www.w3.org/2000/svg" viewBox="0 0 7.9818 5.1882"><path d="M0,0V5.1882H7.9818V0ZM3.9779,4.7331.6852,2.6477,3.9779.5623,7.2706,2.6477Z" fill="#093"/><path d="M.6852,2.6477,3.9779,4.7331,7.2706,2.6477,3.9779.5623Zm4.65-.0536a1.3633,1.3633,0,0,1-.0129.1864,1.3447,1.3447,0,1,1,.0129-.1864Z" fill="#fc0"/><path d="M5.1946,2.84a.05.05,0,0,0,.0288-.0205.0483.0483,0,0,0,.0128-.0323.0363.0363,0,0,0-.0411-.032.0608.0608,0,0,0-.0411.0529.035.035,0,0,0,.0406.0319Z" fill="#fff"/><path d="M4.0254,2.1761l-.0181-.0055-.0123-.003-.0089.0357L4,2.2068a.071.071,0,0,0,.0206.0031l.01-.0043.0053-.009a.0164.0164,0,0,0-.0012-.0124Z" fill="#fff"/><path d="M3.1882,2.0845,3.176,2.0787a.1168.1168,0,0,0-.0216-.0008l-.0118,0,.0018.086.02,0L3.18,2.1622l.01-.0057.0066-.0126A.0872.0872,0,0,0,3.1991,2.12a.0772.0772,0,0,0-.0032-.0231Z" fill="#fff"/><path d="M3.029,2.1l-.0043-.01-.01-.0044-.0192.001-.02.0015.0024.0328.0194-.0014A.0977.0977,0,0,0,3.02,2.1154l.007-.006Z" fill="#fff"/><path d="M2.6889,2.259a1.3444,1.3444,0,0,0,2.5832.7423A3.0228,3.0228,0,0,0,2.6889,2.259Zm.1871.8244-.031-.0226-.0309.0226.0118-.0364L2.795,3.0245h.0382l.0118-.0364.0118.0364h.0383l-.0309.0225Zm.018-.7023-.04.0287L2.87,2.3633l-.04-.0288h.0489L2.894,2.288l.0151.0465H2.958l-.04.0288.0152.0465Zm.1579.592-.04-.0287-.04.0287.0151-.0465-.04-.0288h.049l.0151-.0465.0151.0465h.0489l-.0395.0288Zm.1108-.1085-.0184-.0134-.0184.0134.007-.0216L3.1145,2.83h.0228l.007-.0216.007.0216H3.174l-.0183.0134Zm.1244.37-.0319-.0232-.0319.0232.0122-.0375-.0319-.0231H3.243l.0122-.0375.0121.0375h.0395l-.0319.0231Zm.0355-.1408-.031-.0225-.0309.0225.0118-.0364-.0309-.0224H3.28l.0118-.0364.0119.0364h.0382l-.0309.0224Zm.1674.2726-.04-.0288-.04.0288L3.426,3.32l-.04-.0288h.0489L3.45,3.2448l.0152.0465h.0489l-.04.0288Zm.0076-.7136.0118.0364-.0309-.0225-.031.0225.0118-.0364-.0309-.0225h.0382l.0119-.0364.0118.0364h.0382Zm.5061,1.0087-.0128-.0092-.0128.0092.0049-.015L3.97,3.6374H3.986l.0049-.0151.0049.0151h.0158l-.0128.0093Zm.6863-.02-.0264-.0191-.0264.0191.01-.031-.0264-.0191h.0327l.01-.031.01.031h.0326L4.68,3.611Zm.419-.5768.01-.031.01.031h.0326l-.0264.0192.01.031-.0264-.0192-.0264.0192.01-.031-.0264-.0192ZM5.04,3.17l-.0309.0225.0118.0363L4.99,3.2068l-.031.0224L4.97,3.1929,4.9394,3.17h.0383L4.99,3.134l.0118.0364ZM4.92,3.0479l.0151-.0466.0151.0466H5l-.04.0287.0151.0466-.04-.0288-.04.0288.0151-.0466-.0395-.0287Zm-.0254.2286L4.9067,3.24l.0118.0364h.0383l-.0309.0225.0118.0363-.031-.0224-.0309.0224.0118-.0363-.0309-.0225Zm-.1083.0716.01-.031.01.031h.0326l-.0264.0192.01.031-.0264-.0192L4.77,3.3983l.01-.031-.0264-.0192ZM4.65,3.3187l.01-.031.01.031h.0326l-.0264.0192.01.031L4.66,3.35l-.0263.0191.01-.031-.0264-.0192Zm.0057.1323.0118-.0364.0118.0364h.0383l-.031.0224.0118.0364L4.667,3.4873,4.6361,3.51l.0118-.0364-.031-.0224Zm-.1567-.0847.01-.031.01.031h.0326l-.0264.0192.01.031-.0264-.0191-.0264.0191.01-.031-.0264-.0192ZM4.4419,3.48l-.0309.0225.0118.0364-.0309-.0225-.031.0225.0118-.0364L4.3418,3.48H4.38l.0119-.0363.0118.0363ZM4.35,2.5119l.01-.031.01.031h.0326l-.0263.0192.01.031L4.36,2.543l-.0263.0191.01-.031-.0264-.0192Zm-.0736.8258.01-.031.01.031h.0326l-.0264.0192.01.031-.0264-.0191L4.26,3.3879l.01-.031-.0264-.0192Zm-.14-.4218L4.1475,2.88l.0118.0363h.0382l-.0309.0225.0118.0364-.0309-.0225-.031.0225.0118-.0364-.0309-.0225Zm-.1051.344-.04-.0288-.04.0288.0151-.0466-.04-.0287h.049l.0151-.0466.0151.0466h.0489l-.04.0287Zm-.0514-.4632L3.9909,2.76l.0118.0363H4.041l-.031.0225.0118.0364-.0309-.0225-.031.0225.0119-.0364-.031-.0225Zm-.0573.1951.007.0216h.0228l-.0184.0133.007.0216L3.9218,3.035l-.0183.0133.007-.0216-.0184-.0133h.0227Zm-.05-.055.01.031-.0264-.0192L3.83,2.9678l.01-.031-.0263-.0192h.0326l.01-.031.01.031h.0326Z" fill="#002776"/><path d="M2.8287,2.1007a.0335.0335,0,0,0-.0246.0143.061.061,0,0,0,.0087.0665A.0331.0331,0,0,0,2.84,2.19a.0328.0328,0,0,0,.0241-.0144A.05.05,0,0,0,2.87,2.14a.0487.0487,0,0,0-.0139-.0318A.0333.0333,0,0,0,2.8287,2.1007Z" fill="#fff"/><path d="M4.6674,2.4485l.009-.0016.0067-.0075a.0155.0155,0,0,0,.0016-.0111l-.0065-.0089-.017-.009-.0183-.0091-.0147.03.0174.0086A.0922.0922,0,0,0,4.6674,2.4485Z" fill="#fff"/><path d="M2.7644,2.0434a1.3515,1.3515,0,0,0-.0755.2156,3.0228,3.0228,0,0,1,2.5832.7423,1.3455,1.3455,0,0,0,.05-.2208,3.3293,3.3293,0,0,0-2.5577-.7371Zm.1216.145A.0683.0683,0,0,1,2.7949,2.2a.0671.0671,0,0,1-.0231-.0462A.0838.0838,0,0,1,2.7735,2.12a.0623.0623,0,0,1,.01-.0192.05.05,0,0,1,.0152-.0137.0726.0726,0,0,1,.0271-.0086.0611.0611,0,0,1,.0478.0119.0795.0795,0,0,1,.0126.098Zm.1558.0022-.021-.0268-.0151-.018-.0083-.0049a.0474.0474,0,0,0-.0133,0l-.0053,0,.0039.0541-.0261.0019-.0094-.13.055-.004a.0979.0979,0,0,1,.03.0012.03.03,0,0,1,.0159.0114.0378.0378,0,0,1,.0072.02.0349.0349,0,0,1-.0068.0247.0417.0417,0,0,1-.0248.0138l.0148.01.0164.02.0177.0242Zm.181-.0423a.0574.0574,0,0,1-.0135.0233.0453.0453,0,0,1-.0182.0107.0771.0771,0,0,1-.0231.0032l-.0494.0011-.0027-.13.048-.001a.0912.0912,0,0,1,.0247.002.043.043,0,0,1,.02.0115.0576.0576,0,0,1,.0128.0208.0942.0942,0,0,1,.0049.0306A.0858.0858,0,0,1,3.2228,2.1483ZM3.3806,2.08l-.07-.002L3.31,2.1065l.0652.0019L3.3743,2.13l-.0653-.002-.001.0354.0725.0021L3.38,2.1877l-.0988-.0029.0039-.13.0963.0029Zm.1776.1211-.0243-.002.0085-.1019-.0342.1L3.483,2.1946l-.0171-.1041-.0085.1019L3.4331,2.19l.0108-.1295.0392.0033.0161.09L3.53,2.0681l.0392.0033Zm.2526-.0644-.0638-.01-.0033.02-.001.0059.0573.01.002,0-.0033.02-.0593-.01-.0051.0307,0,.0014.0645.0107.0015,0-.0033.02-.0015,0L3.7069,2.22l.02-.1182.086.0143.0016,0Zm.2509.0664a.0408.0408,0,0,1-.0091.0184.0348.0348,0,0,1-.0138.01.0392.0392,0,0,1-.0147.0027l-.0268-.0048-.0166-.0042-.0119.0476-.0254-.0064.0315-.126.0408.01a.1515.1515,0,0,1,.03.0094.0343.0343,0,0,1,.0151.0169A.04.04,0,0,1,4.0617,2.2028Zm1.0831.5564A.0827.0827,0,0,1,5.17,2.7366.063.063,0,0,1,5.1905,2.73a.0511.0511,0,0,1,.02.0011.0713.0713,0,0,1,.0252.0132.061.061,0,0,1,.0252.0424.0794.0794,0,0,1-.0608.0778A.06.06,0,0,1,5.1536,2.85a.0611.0611,0,0,1-.0254-.0423A.067.067,0,0,1,5.1448,2.7592Zm-.1427-.0748.0223.0126a.0314.0314,0,0,0-.0032.0209.0285.0285,0,0,0,.0121.0158A.0292.0292,0,0,0,5.052,2.74a.0162.0162,0,0,0,.0125-.0066l.0023-.0079-.0045-.01-.014-.0167a.0707.0707,0,0,1-.0168-.0275.034.034,0,0,1,.0052-.0283.033.033,0,0,1,.0153-.0119A.0347.0347,0,0,1,5.0728,2.63a.066.066,0,0,1,.0235.011.0545.0545,0,0,1,.024.03.0381.0381,0,0,1-.0058.0309l-.0221-.0141a.0221.0221,0,0,0,.0023-.016.0262.0262,0,0,0-.0111-.0131.03.03,0,0,0-.0173-.0064l-.0081.0042-.0013.0087a.07.07,0,0,0,.0148.021A.125.125,0,0,1,5.09,2.71a.0366.0366,0,0,1,.0041.019.0409.0409,0,0,1-.0247.0335.0372.0372,0,0,1-.0227.0017A.0716.0716,0,0,1,5.02,2.7517a.0563.0563,0,0,1-.0245-.0311A.05.05,0,0,1,5.0021,2.6844Zm-.11-.0734a.0313.0313,0,0,0-.0022.021.0284.0284,0,0,0,.0129.0152.0288.0288,0,0,0,.019.0056.0156.0156,0,0,0,.0121-.0072l.0019-.008-.005-.01-.0147-.016a.0713.0713,0,0,1-.0182-.0267.0342.0342,0,0,1,.0038-.0285.035.035,0,0,1,.0147-.0127.036.036,0,0,1,.0207-.0024.0656.0656,0,0,1,.0241.01.0547.0547,0,0,1,.0254.0287.0377.0377,0,0,1-.0043.0311L4.96,2.5981a.0226.0226,0,0,0,.0016-.016A.0264.0264,0,0,0,4.95,2.57a.03.03,0,0,0-.0177-.0056l-.0078.0046-.0009.0088a.0705.0705,0,0,0,.0157.02.1226.1226,0,0,1,.019.023.0357.0357,0,0,1,.0051.0188.0391.0391,0,0,1-.0067.02A.0377.0377,0,0,1,4.94,2.674a.0372.0372,0,0,1-.0225.0029.0753.0753,0,0,1-.0265-.0111.0564.0564,0,0,1-.0259-.03A.05.05,0,0,1,4.87,2.6ZM4.782,2.4481l.0839.0473-.0108.0191L4.7941,2.48,4.78,2.5052l.0568.032-.0107.0191-.0568-.0321-.0174.0309.0632.0356-.0107.019-.0861-.0485ZM4.6292,2.37l.05.0246a.0948.0948,0,0,1,.0255.0167.0294.0294,0,0,1,.0079.0178.037.037,0,0,1-.004.0209.0348.0348,0,0,1-.0185.0178.0413.0413,0,0,1-.0283-.0007l.0077.016.004.0255.0029.03-.0281-.014-.0044-.0337L4.64,2.4673l-.0046-.0084-.0112-.0072L4.619,2.4494l-.0242.0485-.0235-.0117ZM4.433,2.3534a.0745.0745,0,0,1,.0221-.03.0573.0573,0,0,1,.0325-.0123.0657.0657,0,0,1,.0311.0064.0614.0614,0,0,1,.0307.0243.0456.0456,0,0,1,.0049.0326l-.0258-.0058a.0284.0284,0,0,0-.0035-.018A.0316.0316,0,0,0,4.51,2.3382.0356.0356,0,0,0,4.48,2.3374a.0458.0458,0,0,0-.0221.0257.0505.0505,0,0,0-.0043.0359.0341.0341,0,0,0,.02.0213l.0164.0036a.055.055,0,0,0,.0162-.0016l.0066-.0151-.0276-.0119.0086-.02.052.0224-.02.0475a.07.07,0,0,1-.0275.0034.0871.0871,0,0,1-.0315-.0069.0714.0714,0,0,1-.0293-.022.0545.0545,0,0,1-.0112-.0314A.08.08,0,0,1,4.433,2.3534Zm-.1685-.062a.0843.0843,0,0,1,.0171-.0293A.06.06,0,0,1,4.299,2.25a.05.05,0,0,1,.02-.0052.0691.0691,0,0,1,.0281.0048.0606.0606,0,0,1,.037.0325.08.08,0,0,1-.0338.0928.0684.0684,0,0,1-.0862-.0315A.0673.0673,0,0,1,4.2645,2.2914Zm-.0554-.0833a.0294.0294,0,0,1,.0108.0163.0374.0374,0,0,1,0,.0212.0346.0346,0,0,1-.0152.0206.0418.0418,0,0,1-.0281.004l.01.0145.0081.0245.0078.0289-.03-.0092-.01-.0325-.0076-.0223-.006-.0075-.0122-.0052L4.1314,2.26l-.0158.0519L4.09,2.3041,4.1284,2.18l.0528.0161A.0914.0914,0,0,1,4.2091,2.2081Z" fill="#fff"/><path d="M4.3087,2.3543a.0329.0329,0,0,0,.0281-.0017.05.05,0,0,0,.0211-.0284A.0491.0491,0,0,0,4.36,2.29a.0362.0362,0,0,0-.049-.0177A.0488.0488,0,0,0,4.29,2.3a.05.05,0,0,0-.0019.035A.0331.0331,0,0,0,4.3087,2.3543Z" fill="#fff"/><path d="M4.179,2.251l.0087-.0031.0054-.0086a.0161.0161,0,0,0,0-.0111L4.1848,2.22l-.0182-.006-.0195-.0059-.01.0315.0186.0057Z" fill="#fff"/><path d="M2.7644,2.0434a3.3293,3.3293,0,0,1,2.5577.7371,1.3633,1.3633,0,0,0,.0129-.1864,1.3443,1.3443,0,0,0-2.5706-.5507Zm1.6337.1181L4.41,2.1252l.0118.0363H4.46l-.031.0225.0118.0364L4.41,2.1979,4.379,2.22l.0118-.0364L4.36,2.1615Z" fill="#002776"/><path d="M2.8256,2.0785a.0726.0726,0,0,0-.0271.0086.05.05,0,0,0-.0152.0137.0623.0623,0,0,0-.01.0192.0838.0838,0,0,0-.0017.0338A.0671.0671,0,0,0,2.7949,2.2a.0683.0683,0,0,0,.0911-.0116.0795.0795,0,0,0-.0126-.098A.0611.0611,0,0,0,2.8256,2.0785Zm.0384.0966A.0328.0328,0,0,1,2.84,2.19a.0331.0331,0,0,1-.0271-.008.061.061,0,0,1-.0087-.0665.0363.0363,0,0,1,.0518-.0066A.0487.0487,0,0,1,2.87,2.14.05.05,0,0,1,2.864,2.1751Z" fill="#093"/><path d="M3.039,2.1443l-.0148-.01a.0417.0417,0,0,0,.0248-.0138.0349.0349,0,0,0,.0068-.0247.0378.0378,0,0,0-.0072-.02.03.03,0,0,0-.0159-.0114.0979.0979,0,0,0-.03-.0012l-.055.004.0094.13.0261-.0019-.0039-.0541.0053,0a.0474.0474,0,0,1,.0133,0l.0083.0049.0151.018.021.0268.0313-.0022-.0177-.0242ZM3.02,2.1154a.0977.0977,0,0,1-.0233.0033L2.9773,2.12l-.0024-.0328.02-.0015.0192-.001.01.0044.0043.01-.002.01Z" fill="#093"/><path d="M3.2085,2.0692a.043.043,0,0,0-.02-.0115.0912.0912,0,0,0-.0247-.002l-.048.001.0027.13.0494-.0011a.0771.0771,0,0,0,.0231-.0032.0453.0453,0,0,0,.0182-.0107.0574.0574,0,0,0,.0135-.0233.0858.0858,0,0,0,.0034-.0277A.0942.0942,0,0,0,3.2213,2.09.0576.0576,0,0,0,3.2085,2.0692Zm-.0116.0747L3.19,2.1565l-.01.0057-.0158.0015-.02,0-.0018-.086.0118,0a.1168.1168,0,0,1,.0216.0008l.0122.0058.0077.0124a.0772.0772,0,0,1,.0032.0231A.0872.0872,0,0,1,3.1969,2.1439Z" fill="#093"/><polygon points="3.281 2.185 3.38 2.188 3.38 2.166 3.308 2.164 3.309 2.128 3.374 2.13 3.375 2.108 3.31 2.106 3.31 2.078 3.381 2.08 3.381 2.058 3.285 2.055 3.281 2.185" fill="#093"/><polygon points="3.499 2.155 3.483 2.064 3.444 2.061 3.433 2.19 3.457 2.192 3.466 2.091 3.483 2.195 3.508 2.197 3.542 2.097 3.534 2.199 3.558 2.201 3.569 2.071 3.53 2.068 3.499 2.155" fill="#093"/><polygon points="3.726 2.102 3.707 2.22 3.795 2.235 3.797 2.235 3.8 2.215 3.799 2.215 3.734 2.204 3.734 2.203 3.739 2.172 3.799 2.182 3.802 2.162 3.8 2.162 3.743 2.152 3.744 2.146 3.747 2.126 3.811 2.136 3.814 2.117 3.812 2.116 3.726 2.102" fill="#093"/><path d="M4.0455,2.16a.1515.1515,0,0,0-.03-.0094l-.0408-.01-.0315.126.0254.0064.0119-.0476.0166.0042.0268.0048a.0392.0392,0,0,0,.0147-.0027.0348.0348,0,0,0,.0138-.01.0408.0408,0,0,0,.0091-.0184.04.04,0,0,0-.0011-.0264A.0343.0343,0,0,0,4.0455,2.16ZM4.03,2.2056l-.01.0043A.071.071,0,0,1,4,2.2068l-.0139-.0035.0089-.0357.0123.003.0181.0055.0088.0081a.0164.0164,0,0,1,.0012.0124Z" fill="#093"/><path d="M4.09,2.3041l.0251.0076L4.1314,2.26l.0051.0016.0122.0052.006.0075.0076.0223.01.0325.03.0092-.0078-.0289-.0081-.0245-.01-.0145a.0418.0418,0,0,0,.0281-.004.0346.0346,0,0,0,.0152-.0206.0374.0374,0,0,0,0-.0212.0294.0294,0,0,0-.0108-.0163.0914.0914,0,0,0-.0279-.0122L4.1284,2.18Zm.0566-.0956.0195.0059.0182.006.008.0078a.0161.0161,0,0,1,0,.0111l-.0054.0086L4.179,2.251l-.023-.0053L4.1374,2.24Z" fill="#093"/><path d="M4.3011,2.3754a.06.06,0,0,0,.049-.0009.08.08,0,0,0,.0338-.0928.0606.0606,0,0,0-.037-.0325.0691.0691,0,0,0-.0281-.0048.05.05,0,0,0-.02.0052.06.06,0,0,0-.0174.0125.0843.0843,0,0,0-.0171.0293.0673.0673,0,0,0-.0006.0516A.0606.0606,0,0,0,4.3011,2.3754ZM4.29,2.3a.0488.0488,0,0,1,.0209-.028A.0362.0362,0,0,1,4.36,2.29a.0491.0491,0,0,1-.0022.0347.05.05,0,0,1-.0211.0284.0352.0352,0,0,1-.0485-.0178A.05.05,0,0,1,4.29,2.3Z" fill="#093"/><path d="M4.4668,2.4416a.0871.0871,0,0,0,.0315.0069.07.07,0,0,0,.0275-.0034l.02-.0475-.052-.0224-.0086.02.0276.0119-.0066.0151a.055.055,0,0,1-.0162.0016L4.4741,2.42a.0341.0341,0,0,1-.02-.0213.0505.0505,0,0,1,.0043-.0359A.0458.0458,0,0,1,4.48,2.3374a.0356.0356,0,0,1,.0294.0008.0316.0316,0,0,1,.0152.0126.0284.0284,0,0,1,.0035.018l.0258.0058a.0456.0456,0,0,0-.0049-.0326.0614.0614,0,0,0-.0307-.0243.0657.0657,0,0,0-.0311-.0064.0573.0573,0,0,0-.0325.0123.0745.0745,0,0,0-.0221.03.08.08,0,0,0-.0067.0348.0545.0545,0,0,0,.0112.0314A.0714.0714,0,0,0,4.4668,2.4416Z" fill="#093"/><path d="M4.619,2.4494l.0047.0023.0112.0072.0046.0084.0039.0233.0044.0337.0281.014-.0029-.03L4.669,2.483l-.0077-.016a.0413.0413,0,0,0,.0283.0007A.0348.0348,0,0,0,4.7081,2.45a.037.037,0,0,0,.004-.0209.0294.0294,0,0,0-.0079-.0178.0948.0948,0,0,0-.0255-.0167l-.05-.0246-.0579.1163.0235.0117Zm.0239-.0481.0183.0091.017.009.0065.0089a.0155.0155,0,0,1-.0016.0111l-.0067.0075-.009.0016a.0922.0922,0,0,1-.0218-.0091l-.0174-.0086Z" fill="#093"/><polygon points="4.815 2.591 4.752 2.555 4.769 2.524 4.826 2.556 4.837 2.537 4.78 2.505 4.794 2.48 4.855 2.515 4.866 2.495 4.782 2.448 4.718 2.561 4.804 2.61 4.815 2.591" fill="#093"/><path d="M4.8653,2.636a.0564.0564,0,0,0,.0259.03.0753.0753,0,0,0,.0265.0111A.0372.0372,0,0,0,4.94,2.674.0377.0377,0,0,0,4.9566,2.66a.0391.0391,0,0,0,.0067-.02.0357.0357,0,0,0-.0051-.0188.1226.1226,0,0,0-.019-.023.0705.0705,0,0,1-.0157-.02l.0009-.0088.0078-.0046A.03.03,0,0,1,4.95,2.57a.0264.0264,0,0,1,.0117.0126.0226.0226,0,0,1-.0016.016l.0228.013A.0377.0377,0,0,0,4.9871,2.58a.0547.0547,0,0,0-.0254-.0287.0656.0656,0,0,0-.0241-.01.036.036,0,0,0-.0207.0024.035.035,0,0,0-.0147.0127.0342.0342,0,0,0-.0038.0285.0713.0713,0,0,0,.0182.0267l.0147.016.005.01-.0019.008a.0156.0156,0,0,1-.0121.0072.0288.0288,0,0,1-.019-.0056A.0284.0284,0,0,1,4.89,2.632a.0313.0313,0,0,1,.0022-.021L4.87,2.6A.05.05,0,0,0,4.8653,2.636Z" fill="#093"/><path d="M5.02,2.7517a.0716.0716,0,0,0,.0258.0123.0372.0372,0,0,0,.0227-.0017.0409.0409,0,0,0,.0247-.0335A.0366.0366,0,0,0,5.09,2.71a.125.125,0,0,0-.0178-.0239.07.07,0,0,1-.0148-.021l.0013-.0087.0081-.0042a.03.03,0,0,1,.0173.0064.0262.0262,0,0,1,.0111.0131.0221.0221,0,0,1-.0023.016l.0221.0141A.0381.0381,0,0,0,5.12,2.6707a.0545.0545,0,0,0-.024-.03.066.066,0,0,0-.0235-.011.0347.0347,0,0,0-.0208.0015.033.033,0,0,0-.0153.0119.034.034,0,0,0-.0052.0283.0707.0707,0,0,0,.0168.0275l.014.0167.0045.01-.0023.0079A.0162.0162,0,0,1,5.052,2.74a.0292.0292,0,0,1-.0187-.0066.0285.0285,0,0,1-.0121-.0158.0314.0314,0,0,1,.0032-.0209l-.0223-.0126a.05.05,0,0,0-.0062.0362A.0563.0563,0,0,0,5.02,2.7517Z" fill="#093"/><path d="M5.1536,2.85a.06.06,0,0,0,.0469.0142.0794.0794,0,0,0,.0608-.0778.061.061,0,0,0-.0252-.0424.0713.0713,0,0,0-.0252-.0132.0511.0511,0,0,0-.02-.0011.063.063,0,0,0-.0205.0065.0827.0827,0,0,0-.0252.0226.067.067,0,0,0-.0166.0489A.0611.0611,0,0,0,5.1536,2.85Zm.013-.0752a.0486.0486,0,0,1,.0285-.02.0363.0363,0,0,1,.0411.032.0483.0483,0,0,1-.0128.0323.05.05,0,0,1-.0288.0205.035.035,0,0,1-.0406-.0319A.0483.0483,0,0,1,5.1666,2.7752Z" fill="#093"/><polygon points="4.379 2.22 4.41 2.198 4.441 2.22 4.429 2.184 4.46 2.162 4.422 2.162 4.41 2.125 4.398 2.162 4.36 2.162 4.391 2.184 4.379 2.22" fill="#fff"/><polygon points="4.636 3.51 4.667 3.487 4.698 3.51 4.686 3.473 4.717 3.451 4.679 3.451 4.667 3.415 4.655 3.451 4.617 3.451 4.648 3.473 4.636 3.51" fill="#fff"/><polygon points="4.38 3.48 4.342 3.48 4.373 3.503 4.361 3.539 4.392 3.517 4.423 3.539 4.411 3.503 4.442 3.48 4.404 3.48 4.392 3.444 4.38 3.48" fill="#fff"/><polygon points="4.978 3.17 4.939 3.17 4.97 3.193 4.958 3.229 4.989 3.207 5.02 3.229 5.009 3.193 5.039 3.17 5.001 3.17 4.989 3.134 4.978 3.17" fill="#fff"/><polygon points="3.96 2.856 3.991 2.833 4.022 2.856 4.01 2.819 4.041 2.797 4.003 2.797 3.991 2.76 3.979 2.797 3.941 2.797 3.972 2.819 3.96 2.856" fill="#fff"/><polygon points="3.478 2.594 3.467 2.631 3.428 2.631 3.459 2.653 3.447 2.689 3.478 2.667 3.509 2.689 3.498 2.653 3.528 2.631 3.49 2.631 3.478 2.594" fill="#fff"/><polygon points="4.116 2.975 4.147 2.952 4.178 2.975 4.167 2.938 4.197 2.916 4.159 2.916 4.147 2.88 4.136 2.916 4.097 2.916 4.128 2.938 4.116 2.975" fill="#fff"/><polygon points="3.303 3.035 3.292 2.999 3.28 3.035 3.242 3.035 3.272 3.058 3.261 3.094 3.292 3.072 3.323 3.094 3.311 3.058 3.342 3.035 3.303 3.035" fill="#fff"/><polygon points="2.857 3.025 2.845 2.988 2.833 3.025 2.795 3.025 2.826 3.047 2.814 3.083 2.845 3.061 2.876 3.083 2.864 3.047 2.895 3.025 2.857 3.025" fill="#fff"/><polygon points="4.876 3.335 4.907 3.313 4.938 3.335 4.926 3.299 4.957 3.276 4.918 3.276 4.907 3.24 4.895 3.276 4.857 3.276 4.888 3.299 4.876 3.335" fill="#fff"/><polygon points="4.26 3.388 4.286 3.369 4.313 3.388 4.302 3.357 4.329 3.338 4.296 3.338 4.286 3.307 4.276 3.338 4.243 3.338 4.27 3.357 4.26 3.388" fill="#fff"/><polygon points="4.482 3.417 4.509 3.397 4.535 3.417 4.525 3.386 4.551 3.366 4.519 3.366 4.509 3.335 4.498 3.366 4.466 3.366 4.492 3.386 4.482 3.417" fill="#fff"/><polygon points="4.633 3.369 4.66 3.35 4.686 3.369 4.676 3.338 4.702 3.319 4.67 3.319 4.66 3.288 4.649 3.319 4.617 3.319 4.643 3.338 4.633 3.369" fill="#fff"/><polygon points="4.77 3.398 4.797 3.379 4.823 3.398 4.813 3.367 4.839 3.348 4.807 3.348 4.797 3.317 4.787 3.348 4.754 3.348 4.78 3.367 4.77 3.398" fill="#fff"/><polygon points="4.674 3.592 4.664 3.561 4.654 3.592 4.621 3.592 4.647 3.611 4.637 3.642 4.664 3.623 4.69 3.642 4.68 3.611 4.706 3.592 4.674 3.592" fill="#fff"/><polygon points="5.093 3.115 5.119 3.096 5.145 3.115 5.135 3.084 5.162 3.065 5.129 3.065 5.119 3.034 5.109 3.065 5.076 3.065 5.103 3.084 5.093 3.115" fill="#fff"/><polygon points="3.856 2.887 3.846 2.918 3.813 2.918 3.839 2.937 3.829 2.968 3.856 2.949 3.882 2.968 3.872 2.937 3.898 2.918 3.866 2.918 3.856 2.887" fill="#fff"/><polygon points="3.91 3.027 3.903 3.048 3.922 3.035 3.94 3.048 3.933 3.027 3.952 3.013 3.929 3.013 3.922 2.992 3.915 3.013 3.892 3.013 3.91 3.027" fill="#fff"/><polygon points="3.151 2.83 3.144 2.808 3.137 2.83 3.114 2.83 3.133 2.843 3.126 2.865 3.144 2.851 3.163 2.865 3.156 2.843 3.174 2.83 3.151 2.83" fill="#fff"/><polygon points="3.996 3.637 3.991 3.622 3.986 3.637 3.97 3.637 3.983 3.647 3.978 3.662 3.991 3.653 4.004 3.662 3.999 3.647 4.012 3.637 3.996 3.637" fill="#fff"/><polygon points="4.333 2.562 4.36 2.543 4.386 2.562 4.376 2.531 4.402 2.512 4.37 2.512 4.36 2.481 4.35 2.512 4.317 2.512 4.343 2.531 4.333 2.562" fill="#fff"/><polygon points="3.267 3.174 3.255 3.137 3.243 3.174 3.204 3.174 3.235 3.197 3.223 3.235 3.255 3.212 3.287 3.235 3.275 3.197 3.307 3.174 3.267 3.174" fill="#fff"/><polygon points="2.958 2.334 2.909 2.334 2.894 2.288 2.879 2.334 2.83 2.334 2.869 2.363 2.854 2.41 2.894 2.381 2.934 2.41 2.918 2.363 2.958 2.334" fill="#fff"/><polygon points="3.466 3.291 3.45 3.245 3.435 3.291 3.386 3.291 3.426 3.32 3.411 3.367 3.45 3.338 3.49 3.367 3.475 3.32 3.514 3.291 3.466 3.291" fill="#fff"/><polygon points="4.006 3.185 3.991 3.138 3.976 3.185 3.927 3.185 3.966 3.213 3.951 3.26 3.991 3.231 4.03 3.26 4.015 3.213 4.055 3.185 4.006 3.185" fill="#fff"/><polygon points="3.027 2.898 3.012 2.851 2.997 2.898 2.948 2.898 2.988 2.927 2.973 2.973 3.012 2.944 3.052 2.973 3.037 2.927 3.076 2.898 3.027 2.898" fill="#fff"/><polygon points="4.896 3.123 4.935 3.094 4.975 3.123 4.96 3.077 4.999 3.048 4.95 3.048 4.935 3.001 4.92 3.048 4.871 3.048 4.911 3.077 4.896 3.123" fill="#fff"/></svg>