<svg xmlns="http://www.w3.org/2000/svg" viewBox="0 0 7.9818 5.1882"><polygon points="2.338 4.612 2.992 4.324 2.338 4.036 2.992 3.748 2.338 3.459 2.992 3.171 2.338 2.883 2.992 2.595 2.338 2.307 2.992 2.019 2.338 1.731 2.992 1.443 2.338 1.154 2.992 0.866 2.338 0.578 2.992 0.29 2.338 0.002 2.342 0 0 0 0 5.188 2.338 5.188 2.992 4.9 2.338 4.612" fill="#fdfffe"/><polygon points="2.342 0 2.338 0.002 2.992 0.29 2.338 0.578 2.992 0.866 2.338 1.154 2.992 1.443 2.338 1.731 2.992 2.019 2.338 2.307 2.992 2.595 2.338 2.883 2.992 3.171 2.338 3.459 2.992 3.748 2.338 4.036 2.992 4.324 2.338 4.612 2.992 4.9 2.338 5.188 7.982 5.188 7.982 0 2.342 0" fill="#961446"/></svg>