<svg xmlns="http://www.w3.org/2000/svg" viewBox="0 0 7.9818 5.1882"><path d="M0,3.4588H7.9818V1.7294H0Zm4.6813-1.313.08.2552.2371-.1239-.1239.2371.2552.08-.2552.08.1239.2371-.2371-.124-.08.2553-.08-.2553-.2371.124.124-.2371-.2553-.08.2553-.08-.124-.2371.2371.1239ZM3.053,2.4251a.8246.8246,0,0,1,.78-.6119A.8056.8056,0,0,1,4.23,1.93a.7737.7737,0,0,1,.2221.21A.6784.6784,0,0,0,3.99,1.9476a.6431.6431,0,0,0-.3868.1267.6517.6517,0,0,0,.4061,1.17.6738.6738,0,0,0,.4469-.1975.8024.8024,0,0,1-.7615.3163A.8244.8244,0,0,1,3.12,2.944.7753.7753,0,0,1,3.053,2.4251Z" fill="#eb2d3c"/><rect y="3.4588" width="7.9818" height="1.7294" fill="#3ca032"/><rect width="7.9818" height="1.7294" fill="#00b9e1"/><path d="M3.6943,3.3634a.8024.8024,0,0,0,.7615-.3163.6738.6738,0,0,1-.4469.1975.6517.6517,0,0,1-.4061-1.17A.6431.6431,0,0,1,3.99,1.9476a.6784.6784,0,0,1,.4629.1929A.7737.7737,0,0,0,4.23,1.93a.8056.8056,0,0,0-.3978-.1171.8246.8246,0,0,0-.78.6119A.7753.7753,0,0,0,3.12,2.944.8244.8244,0,0,0,3.6943,3.3634Z" fill="#fff"/><polygon points="4.488 2.514 4.233 2.594 4.488 2.674 4.364 2.911 4.601 2.787 4.681 3.042 4.761 2.787 4.998 2.911 4.874 2.674 5.13 2.594 4.874 2.514 4.998 2.277 4.761 2.401 4.681 2.146 4.601 2.401 4.364 2.277 4.488 2.514" fill="#fff"/></svg>