<svg xmlns="http://www.w3.org/2000/svg" viewBox="0 0 7.9818 5.1882"><polygon points="0 2.794 0 3.193 7.982 3.193 7.982 2.794 3.537 2.794 0 2.794" fill="#fff"/><rect y="3.1927" width="7.9818" height="0.3991" fill="#b22234"/><rect y="3.9909" width="7.9818" height="0.3991" fill="#b22234"/><rect x="3.5374" y="2.3945" width="4.4444" height="0.3991" fill="#b22234"/><rect y="4.7891" width="7.9818" height="0.3991" fill="#b22234"/><rect y="4.39" width="7.9818" height="0.3991" fill="#fff"/><rect y="3.5918" width="7.9818" height="0.3991" fill="#fff"/><rect x="3.5374" y="0.7982" width="4.4444" height="0.3991" fill="#b22234"/><rect x="3.5374" width="4.4444" height="0.3991" fill="#b22234"/><rect x="3.5374" y="1.9955" width="4.4444" height="0.399" fill="#fff"/><rect x="3.5374" y="0.3991" width="4.4444" height="0.3991" fill="#fff"/><rect x="3.5374" y="1.5964" width="4.4444" height="0.3991" fill="#b22234"/><rect x="3.5374" y="1.1973" width="4.4444" height="0.3991" fill="#fff"/><path d="M3.5374,2.3945V0H0V2.7936H3.5374ZM.3758,2.6506.2947,2.5848l-.0811.0658.031-.1064L.1635,2.4784h.1l.0128-.044.0029-.01.0088-.03L.2947,2.372l.0066.0225.0088.03.0028.01.0128.044h.1l-.0811.0658Zm-.031-.6637.0025.0086.01.0354.0028.01.0154.0528L.3106,2.0405l-.0118-.01L.2947,2.0276l-.0041.0033-.0118.01-.0652.0528L.229,2.0405l.0028-.01.01-.0354.0025-.0086L.1635,1.9212h.1l.031-.1064.031.1064h.1Zm0-.5572.031.1064L.2947,1.47l-.0811.0658L.2446,1.43.1635,1.3639h.1l.031-.1064.031.1064h.1Zm.0288-.58-.0119.01L.3448.8725l.031.1064L.2947.9131.2136.9789.2446.8725.2277.8588.2159.8492.1635.8067h.1L.2662.7982.2947.7.3232.7982.3257.8067h.1ZM.3448.3152.3692.3991.3758.4216.348.3991.2947.3558.2414.3991.2136.4216.22.3991.2446.3152.1635.2494h.1L.2947.143l.031.1064h.1Zm.328,2.0567L.5917,2.3062l-.0811.0657.031-.1064L.4605,2.2h.1l.031-.1065L.6227,2.2h.1l-.0811.0657Zm.045-.7253-.076.0617.031.1064L.5917,1.7489l-.0811.0658.031-.1064L.4655,1.6466l-.005-.0041h.1L.5623,1.637l.0118-.0406.0176-.06.0175.06L.621,1.637l.0017.0055h.1Zm-.076-.4955.0134.0462.0134.0458.0028.01.0014.0048-.006-.0048-.0118-.01L.5985,1.1973.5917,1.1917l-.0069.0056-.0564.0458-.0119.01-.0059.0048L.512,1.2527l.0028-.01.0133-.0458.0135-.0462L.4605,1.0853h.1L.5917.9789l.031.1064h.1Zm0-.5573L.6728.7.5917.6344.5106.7.5416.5938.4605.528h.1L.5791.4648l.0028-.01.01-.0336.01.0336.0028.01L.6227.528h.1ZM.9654,2.6506.8843,2.5848l-.0811.0658.031-.1064L.7531,2.4784h.1l.0128-.044.0028-.01.0088-.03L.8843,2.372l.0066.0225.0088.03.0028.01.0128.044h.1l-.0811.0658Zm-.031-.6637.0025.0086.01.0354.0028.01.0154.0528L.9,2.0405l-.0118-.01L.8843,2.0276.88,2.0309l-.0118.01-.0652.0528.0154-.0528.0028-.01.01-.0354.0025-.0086L.7531,1.9212h.1l.031-.1064.031.1064h.1Zm0-.5572.031.1064L.8843,1.47l-.0811.0658L.8342,1.43.7531,1.3639h.1l.031-.1064.031.1064h.1Zm.0287-.58-.0118.01L.9344.8725l.031.1064L.8843.9131.8032.9789.8342.8725.8173.8588.8055.8492.7531.8067h.1L.8558.7982.8843.7.9128.7982.9153.8067h.1ZM.9344.3152.9588.3991.9654.4216.9376.3991.8843.3558.831.3991.8032.4216.81.3991.8342.3152.7531.2494h.1L.8843.143l.031.1064h.1Zm.328,2.0567-.0811-.0657L1.1,2.3719l.031-.1064L1.05,2.2h.1l.031-.1065L1.2122,2.2h.1l-.0811.0657Zm.045-.7253-.076.0617.031.1064-.0811-.0658L1.1,1.8147l.031-.1064-.0761-.0617L1.05,1.6425h.1l.0016-.0055.0118-.0406.0176-.06.0175.06.0118.0406.0016.0055h.1Zm-.076-.4955.0134.0462.0133.0458.0029.01.0014.0048-.006-.0048-.0118-.01-.0565-.0458-.0068-.0056-.0069.0056-.0565.0458-.0118.01L1.1,1.2575l.0014-.0048.0028-.01.0133-.0458.0135-.0462L1.05,1.0853h.1l.031-.1064.0309.1064h.1Zm0-.5573L1.2624.7,1.1813.6344,1.1.7l.031-.1064L1.05.528h.1L1.1687.4648l.0028-.01.01-.0336.01.0336.0028.01L1.2122.528h.1ZM1.555,2.6506l-.0811-.0658-.0811.0658.031-.1064-.0811-.0658h.1l.0128-.044.0028-.01.0089-.03.0065-.0225.0066.0225.0088.03.0028.01.0128.044h.1l-.0811.0658Zm-.031-.6637.0025.0086.01.0354.0028.01.0154.0528L1.49,2.0405l-.0118-.01-.0041-.0033L1.47,2.0309l-.0118.01-.0652.0528.0154-.0528.0028-.01.01-.0354.0025-.0086-.0811-.0657h.1l.031-.1064.031.1064h.1Zm0-.5572.031.1064L1.4739,1.47l-.0811.0658.031-.1064-.0811-.0658h.1l.031-.1064.031.1064h.1Zm.0287-.58-.0118.01L1.524.8725l.031.1064L1.4739.9131,1.3928.9789l.031-.1064L1.4069.8588,1.395.8492,1.3427.8067h.1L1.4454.7982,1.4739.7l.0285.0979.0025.0085h.1ZM1.524.3152l.0244.0839L1.555.4216,1.5272.3991,1.4739.3558,1.4206.3991,1.3928.4216,1.3994.3991,1.4238.3152,1.3427.2494h.1L1.4739.143l.031.1064h.1Zm.3279,2.0567-.081-.0657L1.69,2.3719l.031-.1064L1.64,2.2h.1l.031-.1065L1.8018,2.2h.1l-.0811.0657Zm.0451-.7253-.076.0617.0309.1064-.081-.0658L1.69,1.8147l.031-.1064-.0761-.0617L1.64,1.6425h.1l.0016-.0055.0118-.0406.0176-.06.0175.06L1.8,1.637l.0016.0055h.1Zm-.076-.4955.0134.0462.0133.0458.0028.01.0014.0048L1.846,1.2527l-.0118-.01-.0565-.0458-.0068-.0056-.0069.0056-.0565.0458-.0118.01L1.69,1.2575l.0014-.0048.0028-.01.0133-.0458.0135-.0462L1.64,1.0853h.1l.031-.1064.0309.1064h.1Zm0-.5573L1.8519.7,1.7709.6344,1.69.7l.031-.1064L1.64.528h.1L1.7583.4648l.0028-.01.01-.0336.01.0336.0028.01L1.8018.528h.1Zm.3236,2.0568-.0811-.0658-.0811.0658.031-.1064-.0811-.0658h.1l.0128-.044.0028-.01.0088-.03.0066-.0225.0065.0225.0089.03.0027.01.0129.044h.1l-.0811.0658Zm-.031-.6637.0025.0086.01.0354.0028.01.0154.0528-.0652-.0528-.0118-.01-.0041-.0033-.0041.0033-.0118.01-.0652.0528.0154-.0528.0028-.01.01-.0354.0025-.0086-.0811-.0657h.1l.031-.1064.031.1064h.1Zm0-.5572.031.1064L2.0635,1.47l-.0811.0658.031-.1064-.0811-.0658h.1l.031-.1064.031.1064h.1Zm.0287-.58-.0118.01L2.1136.8725l.031.1064L2.0635.9131,1.9824.9789l.031-.1064L1.9965.8588l-.0118-.01L1.9323.8067h.1L2.035.7982,2.0635.7,2.092.7982l.0025.0085h.1ZM2.1136.3152,2.138.3991l.0066.0225L2.1168.3991,2.0635.3558,2.01.3991,1.9824.4216,1.989.3991,2.0134.3152,1.9323.2494h.1L2.0635.143l.031.1064h.1Zm.3279,2.0567-.081-.0657-.0811.0657L2.31,2.2655,2.2293,2.2h.1l.031-.1065L2.3914,2.2h.1l-.081.0657Zm.0451-.7253-.076.0617.0309.1064-.081-.0658-.0811.0658L2.31,1.7083l-.076-.0617-.005-.0041h.1l.0016-.0055.0118-.0406.0176-.06.0175.06L2.39,1.637l.0016.0055h.1Zm-.076-.4955.0134.0462.0133.0458.0028.01.0014.0048-.0059-.0048-.0118-.01-.0565-.0458-.0068-.0056-.0069.0056-.0565.0458-.0118.01-.0059.0048.0014-.0048.0028-.01.0133-.0458L2.31,1.1511l-.081-.0658h.1l.031-.1064.0309.1064h.1Zm0-.5573L2.4415.7,2.3605.6344,2.2794.7,2.31.5938,2.2293.528h.1L2.3479.4648l.0028-.01.01-.0336.01.0336.0028.01L2.3914.528h.1Zm.3236,2.0568-.0811-.0658-.0811.0658.031-.1064-.0811-.0658h.1l.0128-.044.0028-.01.0088-.03.0066-.0225.0065.0225.0089.03.0027.01.0128.044h.1l-.0811.0658Zm-.031-.6637.0025.0086.01.0354.0028.01.0154.0528L2.669,2.0405l-.0118-.01-.0041-.0033-.0041.0033-.0119.01-.0651.0528.0154-.0528.0028-.01.01-.0354.0025-.0086-.0811-.0657h.1l.031-.1064.0309.1064h.1Zm0-.5572.031.1064L2.6531,1.47l-.0811.0658L2.603,1.43l-.0811-.0658h.1l.031-.1064.0309.1064h.1Zm.0287-.58L2.72.8588,2.7032.8725l.031.1064L2.6531.9131,2.572.9789,2.603.8725,2.5861.8588l-.0119-.01L2.5219.8067h.1L2.6246.7982,2.6531.7l.0285.0979L2.684.8067h.1ZM2.7032.3152l.0244.0839.0066.0225L2.7064.3991,2.6531.3558,2.6.3991,2.572.4216,2.5785.3991,2.603.3152,2.5219.2494h.1L2.6531.143,2.684.2494h.1Zm.3279,2.0567L2.95,2.3062l-.081.0657L2.9,2.2655,2.8188,2.2h.1L2.95,2.0933,2.981,2.2h.1L3,2.2655Zm.0451-.7253L3,1.7083l.0309.1064L2.95,1.7489l-.081.0658L2.9,1.7083l-.076-.0617-.0051-.0041h.1l.0016-.0055.0118-.0406.0175-.06.0176.06.0118.0406.0016.0055h.1ZM3,1.1511l.0134.0462.0133.0458.0028.01.0014.0048-.0059-.0048-.0119-.01-.0564-.0458L2.95,1.1917l-.0068.0056-.0565.0458-.0118.01-.0059.0048L2.87,1.2527l.0027-.01.0134-.0458L2.9,1.1511l-.0811-.0658h.1L2.95.9789l.031.1064h.1ZM3,.5938,3.0311.7,2.95.6344,2.869.7,2.9.5938,2.8188.528h.1L2.9374.4648,2.94.4552,2.95.4216l.01.0336.0028.01L2.981.528h.1Zm.3235,2.0568-.081-.0658-.0811.0658.031-.1064-.0811-.0658h.1l.0128-.044.0028-.01.0088-.03.0066-.0225.0065.0225.0088.03.0028.01.0128.044h.1l-.0811.0658Zm-.0309-.6637.0025.0086.01.0354.0028.01.0153.0528-.0651-.0528-.0118-.01-.0041-.0033-.0041.0033-.0119.01-.0651.0528.0154-.0528.0028-.01.01-.0354.0025-.0086-.0811-.0657h.1l.031-.1064.0309.1064h.1Zm0-.5572.0309.1064L3.2427,1.47l-.0811.0658.031-.1064-.0811-.0658h.1l.031-.1064.0309.1064h.1Zm.0287-.58L3.31.8588,3.2928.8725l.0309.1064L3.2427.9131,3.1616.9789l.031-.1064L3.1757.8588l-.0119-.01L3.1115.8067h.1L3.2142.7982,3.2427.7l.0285.0979.0024.0085h.1ZM3.2928.3152l.0244.0839.0065.0225L3.296.3991,3.2427.3558,3.1893.3991,3.1616.4216,3.1681.3991,3.1926.3152,3.1115.2494h.1L3.2427.143l.0309.1064h.1Z" fill="#3c3b6e"/><polygon points="0.326 2.478 0.313 2.434 0.31 2.425 0.301 2.395 0.295 2.372 0.288 2.395 0.279 2.425 0.276 2.434 0.264 2.478 0.163 2.478 0.245 2.544 0.214 2.651 0.295 2.585 0.376 2.651 0.345 2.544 0.426 2.478 0.326 2.478" fill="#fff"/><polygon points="0.915 2.478 0.902 2.434 0.9 2.425 0.891 2.395 0.884 2.372 0.878 2.395 0.869 2.425 0.866 2.434 0.853 2.478 0.753 2.478 0.834 2.544 0.803 2.651 0.884 2.585 0.965 2.651 0.934 2.544 1.015 2.478 0.915 2.478" fill="#fff"/><polygon points="1.505 2.478 1.492 2.434 1.489 2.425 1.48 2.395 1.474 2.372 1.467 2.395 1.458 2.425 1.456 2.434 1.443 2.478 1.343 2.478 1.424 2.544 1.393 2.651 1.474 2.585 1.555 2.651 1.524 2.544 1.605 2.478 1.505 2.478" fill="#fff"/><polygon points="2.094 2.478 2.082 2.434 2.079 2.425 2.07 2.395 2.063 2.372 2.057 2.395 2.048 2.425 2.045 2.434 2.032 2.478 1.932 2.478 2.013 2.544 1.982 2.651 2.063 2.585 2.145 2.651 2.114 2.544 2.195 2.478 2.094 2.478" fill="#fff"/><polygon points="2.684 2.478 2.671 2.434 2.668 2.425 2.66 2.395 2.653 2.372 2.646 2.395 2.638 2.425 2.635 2.434 2.622 2.478 2.522 2.478 2.603 2.544 2.572 2.651 2.653 2.585 2.734 2.651 2.703 2.544 2.784 2.478 2.684 2.478" fill="#fff"/><polygon points="3.274 2.478 3.261 2.434 3.258 2.425 3.249 2.395 3.243 2.372 3.236 2.395 3.227 2.425 3.224 2.434 3.212 2.478 3.111 2.478 3.193 2.544 3.162 2.651 3.243 2.585 3.324 2.651 3.293 2.544 3.374 2.478 3.274 2.478" fill="#fff"/><polygon points="0.295 1.815 0.264 1.921 0.163 1.921 0.245 1.987 0.242 1.995 0.232 2.031 0.229 2.04 0.214 2.093 0.279 2.04 0.291 2.031 0.295 2.028 0.299 2.031 0.311 2.04 0.376 2.093 0.36 2.04 0.358 2.031 0.347 1.995 0.345 1.987 0.426 1.921 0.326 1.921 0.295 1.815" fill="#fff"/><polygon points="0.884 1.815 0.853 1.921 0.753 1.921 0.834 1.987 0.832 1.995 0.821 2.031 0.819 2.04 0.803 2.093 0.868 2.04 0.88 2.031 0.884 2.028 0.888 2.031 0.9 2.04 0.965 2.093 0.95 2.04 0.947 2.031 0.937 1.995 0.934 1.987 1.015 1.921 0.915 1.921 0.884 1.815" fill="#fff"/><polygon points="1.474 1.815 1.443 1.921 1.343 1.921 1.424 1.987 1.421 1.995 1.411 2.031 1.408 2.04 1.393 2.093 1.458 2.04 1.47 2.031 1.474 2.028 1.478 2.031 1.49 2.04 1.555 2.093 1.54 2.04 1.537 2.031 1.526 1.995 1.524 1.987 1.605 1.921 1.505 1.921 1.474 1.815" fill="#fff"/><polygon points="2.063 1.815 2.032 1.921 1.932 1.921 2.013 1.987 2.011 1.995 2.001 2.031 1.998 2.04 1.982 2.093 2.048 2.04 2.059 2.031 2.063 2.028 2.068 2.031 2.079 2.04 2.145 2.093 2.129 2.04 2.126 2.031 2.116 1.995 2.114 1.987 2.195 1.921 2.094 1.921 2.063 1.815" fill="#fff"/><polygon points="2.653 1.815 2.622 1.921 2.522 1.921 2.603 1.987 2.6 1.995 2.59 2.031 2.587 2.04 2.572 2.093 2.637 2.04 2.649 2.031 2.653 2.028 2.657 2.031 2.669 2.04 2.734 2.093 2.719 2.04 2.716 2.031 2.706 1.995 2.703 1.987 2.784 1.921 2.684 1.921 2.653 1.815" fill="#fff"/><polygon points="3.243 1.815 3.212 1.921 3.111 1.921 3.193 1.987 3.19 1.995 3.18 2.031 3.177 2.04 3.162 2.093 3.227 2.04 3.239 2.031 3.243 2.028 3.247 2.031 3.259 2.04 3.324 2.093 3.308 2.04 3.306 2.031 3.295 1.995 3.293 1.987 3.374 1.921 3.274 1.921 3.243 1.815" fill="#fff"/><polygon points="0.295 1.257 0.264 1.364 0.163 1.364 0.245 1.43 0.214 1.536 0.295 1.47 0.376 1.536 0.345 1.43 0.426 1.364 0.326 1.364 0.295 1.257" fill="#fff"/><polygon points="0.884 1.257 0.853 1.364 0.753 1.364 0.834 1.43 0.803 1.536 0.884 1.47 0.965 1.536 0.934 1.43 1.015 1.364 0.915 1.364 0.884 1.257" fill="#fff"/><polygon points="1.474 1.257 1.443 1.364 1.343 1.364 1.424 1.43 1.393 1.536 1.474 1.47 1.555 1.536 1.524 1.43 1.605 1.364 1.505 1.364 1.474 1.257" fill="#fff"/><polygon points="2.063 1.257 2.032 1.364 1.932 1.364 2.013 1.43 1.982 1.536 2.063 1.47 2.145 1.536 2.114 1.43 2.195 1.364 2.094 1.364 2.063 1.257" fill="#fff"/><polygon points="2.653 1.257 2.622 1.364 2.522 1.364 2.603 1.43 2.572 1.536 2.653 1.47 2.734 1.536 2.703 1.43 2.784 1.364 2.684 1.364 2.653 1.257" fill="#fff"/><polygon points="3.243 1.257 3.212 1.364 3.111 1.364 3.193 1.43 3.162 1.536 3.243 1.47 3.324 1.536 3.293 1.43 3.374 1.364 3.274 1.364 3.243 1.257" fill="#fff"/><polygon points="0.323 0.798 0.295 0.7 0.266 0.798 0.264 0.807 0.163 0.807 0.216 0.849 0.228 0.859 0.245 0.872 0.214 0.979 0.295 0.913 0.376 0.979 0.345 0.872 0.362 0.859 0.374 0.849 0.426 0.807 0.326 0.807 0.323 0.798" fill="#fff"/><polygon points="0.913 0.798 0.884 0.7 0.856 0.798 0.853 0.807 0.753 0.807 0.805 0.849 0.817 0.859 0.834 0.872 0.803 0.979 0.884 0.913 0.965 0.979 0.934 0.872 0.951 0.859 0.963 0.849 1.015 0.807 0.915 0.807 0.913 0.798" fill="#fff"/><polygon points="1.502 0.798 1.474 0.7 1.445 0.798 1.443 0.807 1.343 0.807 1.395 0.849 1.407 0.859 1.424 0.872 1.393 0.979 1.474 0.913 1.555 0.979 1.524 0.872 1.541 0.859 1.553 0.849 1.605 0.807 1.505 0.807 1.502 0.798" fill="#fff"/><polygon points="2.092 0.798 2.063 0.7 2.035 0.798 2.032 0.807 1.932 0.807 1.985 0.849 1.996 0.859 2.013 0.872 1.982 0.979 2.063 0.913 2.145 0.979 2.114 0.872 2.13 0.859 2.142 0.849 2.195 0.807 2.094 0.807 2.092 0.798" fill="#fff"/><polygon points="2.682 0.798 2.653 0.7 2.625 0.798 2.622 0.807 2.522 0.807 2.574 0.849 2.586 0.859 2.603 0.872 2.572 0.979 2.653 0.913 2.734 0.979 2.703 0.872 2.72 0.859 2.732 0.849 2.784 0.807 2.684 0.807 2.682 0.798" fill="#fff"/><polygon points="3.271 0.798 3.243 0.7 3.214 0.798 3.212 0.807 3.111 0.807 3.164 0.849 3.176 0.859 3.193 0.872 3.162 0.979 3.243 0.913 3.324 0.979 3.293 0.872 3.31 0.859 3.321 0.849 3.374 0.807 3.274 0.807 3.271 0.798" fill="#fff"/><polygon points="0.604 0.465 0.601 0.455 0.592 0.422 0.582 0.455 0.579 0.465 0.561 0.528 0.46 0.528 0.542 0.594 0.511 0.7 0.592 0.634 0.673 0.7 0.642 0.594 0.723 0.528 0.623 0.528 0.604 0.465" fill="#fff"/><polygon points="1.194 0.465 1.191 0.455 1.181 0.422 1.171 0.455 1.169 0.465 1.15 0.528 1.05 0.528 1.131 0.594 1.1 0.7 1.181 0.634 1.262 0.7 1.231 0.594 1.312 0.528 1.212 0.528 1.194 0.465" fill="#fff"/><polygon points="1.783 0.465 1.781 0.455 1.771 0.422 1.761 0.455 1.758 0.465 1.74 0.528 1.64 0.528 1.721 0.594 1.69 0.7 1.771 0.634 1.852 0.7 1.821 0.594 1.902 0.528 1.802 0.528 1.783 0.465" fill="#fff"/><polygon points="2.373 0.465 2.37 0.455 2.36 0.422 2.351 0.455 2.348 0.465 2.329 0.528 2.229 0.528 2.31 0.594 2.279 0.7 2.36 0.634 2.441 0.7 2.411 0.594 2.492 0.528 2.391 0.528 2.373 0.465" fill="#fff"/><polygon points="2.963 0.465 2.96 0.455 2.95 0.422 2.94 0.455 2.937 0.465 2.919 0.528 2.819 0.528 2.9 0.594 2.869 0.7 2.95 0.634 3.031 0.7 3 0.594 3.081 0.528 2.981 0.528 2.963 0.465" fill="#fff"/><polygon points="0.592 0.979 0.561 1.085 0.46 1.085 0.542 1.151 0.528 1.197 0.515 1.243 0.512 1.253 0.511 1.257 0.516 1.253 0.528 1.243 0.585 1.197 0.592 1.192 0.598 1.197 0.655 1.243 0.667 1.253 0.673 1.257 0.671 1.253 0.669 1.243 0.655 1.197 0.642 1.151 0.723 1.085 0.623 1.085 0.592 0.979" fill="#fff"/><polygon points="1.181 0.979 1.15 1.085 1.05 1.085 1.131 1.151 1.118 1.197 1.104 1.243 1.102 1.253 1.1 1.257 1.106 1.253 1.118 1.243 1.174 1.197 1.181 1.192 1.188 1.197 1.245 1.243 1.256 1.253 1.262 1.257 1.261 1.253 1.258 1.243 1.245 1.197 1.231 1.151 1.312 1.085 1.212 1.085 1.181 0.979" fill="#fff"/><polygon points="1.771 0.979 1.74 1.085 1.64 1.085 1.721 1.151 1.707 1.197 1.694 1.243 1.691 1.253 1.69 1.257 1.696 1.253 1.707 1.243 1.764 1.197 1.771 1.192 1.778 1.197 1.834 1.243 1.846 1.253 1.852 1.257 1.85 1.253 1.848 1.243 1.834 1.197 1.821 1.151 1.902 1.085 1.802 1.085 1.771 0.979" fill="#fff"/><polygon points="2.36 0.979 2.329 1.085 2.229 1.085 2.31 1.151 2.297 1.197 2.284 1.243 2.281 1.253 2.279 1.257 2.285 1.253 2.297 1.243 2.354 1.197 2.36 1.192 2.367 1.197 2.424 1.243 2.436 1.253 2.441 1.257 2.44 1.253 2.437 1.243 2.424 1.197 2.411 1.151 2.492 1.085 2.391 1.085 2.36 0.979" fill="#fff"/><polygon points="2.95 0.979 2.919 1.085 2.819 1.085 2.9 1.151 2.886 1.197 2.873 1.243 2.87 1.253 2.869 1.257 2.875 1.253 2.887 1.243 2.943 1.197 2.95 1.192 2.957 1.197 3.013 1.243 3.025 1.253 3.031 1.257 3.03 1.253 3.027 1.243 3.014 1.197 3 1.151 3.081 1.085 2.981 1.085 2.95 0.979" fill="#fff"/><polygon points="0.621 1.637 0.609 1.596 0.592 1.536 0.574 1.596 0.562 1.637 0.561 1.642 0.46 1.642 0.465 1.647 0.542 1.708 0.511 1.815 0.592 1.749 0.673 1.815 0.642 1.708 0.718 1.647 0.723 1.642 0.623 1.642 0.621 1.637" fill="#fff"/><polygon points="1.211 1.637 1.199 1.596 1.181 1.536 1.164 1.596 1.152 1.637 1.15 1.642 1.05 1.642 1.055 1.647 1.131 1.708 1.1 1.815 1.181 1.749 1.262 1.815 1.231 1.708 1.307 1.647 1.312 1.642 1.212 1.642 1.211 1.637" fill="#fff"/><polygon points="1.8 1.637 1.788 1.596 1.771 1.536 1.753 1.596 1.741 1.637 1.74 1.642 1.64 1.642 1.645 1.647 1.721 1.708 1.69 1.815 1.771 1.749 1.852 1.815 1.821 1.708 1.897 1.647 1.902 1.642 1.802 1.642 1.8 1.637" fill="#fff"/><polygon points="2.39 1.637 2.378 1.596 2.36 1.536 2.343 1.596 2.331 1.637 2.329 1.642 2.229 1.642 2.234 1.647 2.31 1.708 2.279 1.815 2.36 1.749 2.441 1.815 2.411 1.708 2.487 1.647 2.492 1.642 2.391 1.642 2.39 1.637" fill="#fff"/><polygon points="2.979 1.637 2.968 1.596 2.95 1.536 2.932 1.596 2.921 1.637 2.919 1.642 2.819 1.642 2.824 1.647 2.9 1.708 2.869 1.815 2.95 1.749 3.031 1.815 3 1.708 3.076 1.647 3.081 1.642 2.981 1.642 2.979 1.637" fill="#fff"/><polygon points="0.623 2.2 0.592 2.093 0.561 2.2 0.46 2.2 0.542 2.265 0.511 2.372 0.592 2.306 0.673 2.372 0.642 2.265 0.723 2.2 0.623 2.2" fill="#fff"/><polygon points="1.212 2.2 1.181 2.093 1.15 2.2 1.05 2.2 1.131 2.265 1.1 2.372 1.181 2.306 1.262 2.372 1.231 2.265 1.312 2.2 1.212 2.2" fill="#fff"/><polygon points="1.802 2.2 1.771 2.093 1.74 2.2 1.64 2.2 1.721 2.265 1.69 2.372 1.771 2.306 1.852 2.372 1.821 2.265 1.902 2.2 1.802 2.2" fill="#fff"/><polygon points="2.391 2.2 2.36 2.093 2.329 2.2 2.229 2.2 2.31 2.265 2.279 2.372 2.36 2.306 2.441 2.372 2.411 2.265 2.492 2.2 2.391 2.2" fill="#fff"/><polygon points="2.981 2.2 2.95 2.093 2.919 2.2 2.819 2.2 2.9 2.265 2.869 2.372 2.95 2.306 3.031 2.372 3 2.265 3.081 2.2 2.981 2.2" fill="#fff"/><polygon points="0.295 0.143 0.264 0.249 0.163 0.249 0.245 0.315 0.22 0.399 0.214 0.422 0.241 0.399 0.295 0.356 0.348 0.399 0.376 0.422 0.369 0.399 0.345 0.315 0.426 0.249 0.326 0.249 0.295 0.143" fill="#fff"/><polygon points="0.884 0.143 0.853 0.249 0.753 0.249 0.834 0.315 0.81 0.399 0.803 0.422 0.831 0.399 0.884 0.356 0.938 0.399 0.965 0.422 0.959 0.399 0.934 0.315 1.015 0.249 0.915 0.249 0.884 0.143" fill="#fff"/><polygon points="1.474 0.143 1.443 0.249 1.343 0.249 1.424 0.315 1.399 0.399 1.393 0.422 1.421 0.399 1.474 0.356 1.527 0.399 1.555 0.422 1.548 0.399 1.524 0.315 1.605 0.249 1.505 0.249 1.474 0.143" fill="#fff"/><polygon points="2.063 0.143 2.032 0.249 1.932 0.249 2.013 0.315 1.989 0.399 1.982 0.422 2.01 0.399 2.063 0.356 2.117 0.399 2.145 0.422 2.138 0.399 2.114 0.315 2.195 0.249 2.094 0.249 2.063 0.143" fill="#fff"/><polygon points="2.653 0.143 2.622 0.249 2.522 0.249 2.603 0.315 2.578 0.399 2.572 0.422 2.6 0.399 2.653 0.356 2.706 0.399 2.734 0.422 2.728 0.399 2.703 0.315 2.784 0.249 2.684 0.249 2.653 0.143" fill="#fff"/><polygon points="3.243 0.143 3.212 0.249 3.111 0.249 3.193 0.315 3.168 0.399 3.162 0.422 3.189 0.399 3.243 0.356 3.296 0.399 3.324 0.422 3.317 0.399 3.293 0.315 3.374 0.249 3.274 0.249 3.243 0.143" fill="#fff"/></svg>