<svg xmlns="http://www.w3.org/2000/svg" viewBox="0 0 7.9819 5.1882"><rect width="7.9819" height="5.1882" fill="#009"/><polygon points="2.254 3.622 2.486 3.279 2.099 3.427 1.973 3.032 1.848 3.426 1.466 3.284 1.693 3.623 1.337 3.827 1.746 3.865 1.692 4.269 1.974 3.973 2.256 4.27 2.199 3.863 2.616 3.831 2.254 3.622" fill="#fff"/><polygon points="6.259 4.015 6.365 3.859 6.189 3.926 6.131 3.745 6.074 3.926 5.9 3.861 6.003 4.015 5.841 4.109 6.028 4.126 6.003 4.31 6.131 4.175 6.26 4.31 6.234 4.125 6.424 4.11 6.259 4.015" fill="#fff"/><polygon points="5.178 2.315 5.284 2.159 5.107 2.227 5.05 2.046 4.993 2.226 4.818 2.161 4.922 2.316 4.76 2.409 4.946 2.426 4.921 2.61 5.05 2.476 5.179 2.611 5.153 2.426 5.343 2.411 5.178 2.315" fill="#fff"/><polygon points="7.222 2.026 7.328 1.87 7.152 1.938 7.094 1.757 7.037 1.937 6.863 1.872 6.966 2.027 6.804 2.12 6.991 2.137 6.966 2.321 7.094 2.187 7.223 2.322 7.197 2.136 7.387 2.122 7.222 2.026" fill="#fff"/><polygon points="6.028 1.259 6.003 1.444 6.131 1.309 6.26 1.444 6.234 1.259 6.424 1.244 6.259 1.149 6.365 0.992 6.189 1.06 6.131 0.879 6.074 1.059 5.9 0.995 6.003 1.149 5.841 1.242 6.028 1.259" fill="#fff"/><polygon points="6.616 2.718 6.565 2.615 6.514 2.718 6.4 2.735 6.483 2.815 6.463 2.929 6.565 2.875 6.667 2.929 6.648 2.815 6.73 2.735 6.616 2.718" fill="#fff"/><polygon points="2.328 1.557 2.195 1.557 2.195 2.594 2.328 2.594 2.328 2.019 3.216 2.594 3.362 2.594 2.328 1.92 2.328 1.729 3.662 2.594 3.991 2.594 3.991 2.521 2.777 1.729 3.991 1.729 3.991 1.557 2.351 1.557 2.328 1.557" fill="#fff"/><polygon points="1.663 1.729 1.663 1.92 0.629 2.594 0.775 2.594 1.663 2.019 1.663 2.594 1.796 2.594 1.796 1.557 0 1.557 0 1.729 1.214 1.729 0 2.521 0 2.594 0.329 2.594 1.663 1.729" fill="#fff"/><polygon points="2.195 1.038 2.328 1.038 2.351 1.038 3.991 1.038 3.991 0.865 3.103 0.865 3.991 0.29 3.991 0.19 2.957 0.865 2.657 0.865 3.991 0 3.542 0 2.328 0.791 2.328 0 2.195 0 2.195 0.865 2.195 1.038" fill="#fff"/><polygon points="1.796 1.038 1.796 0.865 1.796 0 1.663 0 1.663 0.791 0.449 0 0 0 1.334 0.865 1.034 0.865 0 0.19 0 0.29 0.888 0.865 0 0.865 0 1.038 1.663 1.038 1.796 1.038" fill="#fff"/><polygon points="2.328 1.92 3.362 2.594 3.662 2.594 2.328 1.729 2.328 1.92" fill="#cf142b"/><polygon points="1.663 0 0.449 0 1.663 0.791 1.663 0" fill="#009"/><polygon points="1.334 0.865 0 0 0 0.19 1.034 0.865 1.334 0.865" fill="#cf142b"/><polygon points="0 0.29 0 0.865 0.888 0.865 0 0.29" fill="#009"/><polygon points="0 1.729 0 2.521 1.214 1.729 0 1.729" fill="#009"/><polygon points="1.663 1.729 0.329 2.594 0.629 2.594 1.663 1.92 1.663 1.729" fill="#cf142b"/><polygon points="3.542 0 2.328 0 2.328 0.791 3.542 0" fill="#009"/><polygon points="2.957 0.865 3.991 0.19 3.991 0 2.657 0.865 2.957 0.865" fill="#cf142b"/><polygon points="1.796 2.594 2.195 2.594 2.195 1.557 2.328 1.557 2.351 1.557 3.991 1.557 3.991 1.038 2.351 1.038 2.328 1.038 2.195 1.038 2.195 0.865 2.195 0 1.796 0 1.796 0.865 1.796 1.038 1.663 1.038 0 1.038 0 1.557 1.796 1.557 1.796 2.594" fill="#cf142b"/></svg>