<svg xmlns="http://www.w3.org/2000/svg" viewBox="0 0 7.9818 5.1882"><rect width="7.9818" height="5.1882" fill="#fff"/><rect width="1.9954" height="5.1882" fill="red"/><rect x="5.9863" width="1.9955" height="5.1882" fill="red"/><path d="M5.8068,2.6049l-.1916-.0928a.0775.0775,0,0,1-.0407-.0908l.1582-.5648L5.7313,1.855l-.489.1152a.0824.0824,0,0,1-.0981-.058L5.08,1.6863l-.002,0-.42.4756a.0641.0641,0,0,1-.1109-.0544l.1769-.97-.0017-.0013-.2576.14A.0947.0947,0,0,1,4.336,1.237l-.32-.586H4.0152l-.32.586a.0947.0947,0,0,1-.1288.0386l-.2575-.14-.0018.0013.1769.97a.064.064,0,0,1-.1108.0544l-.42-.4756-.0021,0-.0639.2259a.0824.0824,0,0,1-.0981.058L2.3,1.855l-.0014.0015.1583.5648a.0777.0777,0,0,1-.0407.0908l-.1917.0928,0,.002.8554.7009a.1378.1378,0,0,1,.0434.15l-.072.2182.0013.0016L3.9085,3.56a.0581.0581,0,0,1,.0658.06l-.0292.918h.1411L4.057,3.62a.0587.0587,0,0,1,.02-.046A.058.058,0,0,1,4.1228,3.56l.8562.1175L4.98,3.6757l-.072-.2182a.1378.1378,0,0,1,.0433-.15l.8555-.7009Z" fill="red"/></svg>