<?xml version="1.0" encoding="utf-8"?>
<!-- Generator: Adobe Illustrator 25.2.0, SVG Export Plug-In . SVG Version: 6.00 Build 0)  -->
<svg version="1.1" id="Layer_1" xmlns="http://www.w3.org/2000/svg" xmlns:xlink="http://www.w3.org/1999/xlink" x="0px" y="0px"
	 viewBox="0 0 2500 2500" style="enable-background:new 0 0 2500 2500;" xml:space="preserve">
<style type="text/css">
	.st0{fill-rule:evenodd;clip-rule:evenodd;}
</style>
<g>
	<path class="st0" d="M36.2,1507.2v-50.6h28.1c14.1,0,42.2-2.8,42.2-36.6v-303.8c0-18.3-1.4-61.9-36.6-61.9H37.6l36.6-64.7h2164.1
		v64.7H247.2c-18.3,0-42.2,4.2-42.2,40.8v95.7c4.2,11.2,21.1,15.5,29.5,15.5s38-1.4,38-47.8h42.2v156.2h-42.2
		c0-14.1-15.5-37.6-36.6-39.4c-16.9-1.4-31,4.2-31,26.7V1420c0,12.7,15.5,36.6,52.1,36.6h25.3v50.6L36.2,1507.2L36.2,1507.2z"/>
	<path class="st0" d="M1285.1,1127.4c0,11.3,14.1,22.5,22.5,25.3c9.9-7,61.9-36.6,102.7-36.6c40.8,0,61.9,21.1,61.9,53.5v154.7
		h-98.5v-119.6c0-15.5-4.2-26.7-18.3-28.1c-14.1-1.4-50.6,28.1-60.5,42.2v213.8c0,19.7,19.7,33.8,36.6,33.8v40.8h-171.6V1465
		c16.9,0,35.2-5.6,36.6-30.9v-237.8c0-7-11.3-26.7-36.6-26.7v-42.2H1285.1z M2462.8,1127.4h-171.6v42.2c25.3,0,36.6,19.7,36.6,26.7
		v237.7c-1.4,25.3-19.7,30.9-36.6,30.9v42.2h171.6v-40.8c-16.9,0-36.6-14.1-36.6-33.8v-233.5c0-16.9,18.3-29.5,36.6-29.5V1127.4z
		 M905.3,1127.4c0,11.3,14.1,22.5,22.5,25.3c9.8-7,61.9-36.6,102.7-36.6c40.8,0,61.9,21.1,61.9,53.5v154.7h-98.5v-119.6
		c0-15.5-4.2-26.7-18.3-28.1c-14.1-1.4-50.7,28.1-60.5,42.2v213.8c0,19.7,19.7,33.8,36.6,33.8v40.8H780.1V1465
		c16.9,0,35.2-5.6,36.6-30.9v-237.8c0-7-11.3-26.7-36.6-26.7v-42.2H905.3z M2046.4,1127.4c0,11.3,14.1,22.5,22.5,25.3
		c9.9-7,61.9-36.6,102.7-36.6c40.8,0,61.9,21.1,61.9,53.5v154.7h-98.5v-119.6c0-15.5-4.2-26.7-18.3-28.1
		c-14.1-1.4-50.6,28.1-60.5,42.2v213.8c0,19.7,19.7,33.8,36.6,33.8v40.8h-171.6V1465c16.9,0,35.2-5.6,36.6-30.9v-237.8
		c0-7-11.2-26.7-36.6-26.7v-42.2H2046.4z M705.8,1389.1h-98.5v38c0,15.5-2.8,47.8-49.2,47.8s-60.5-31-60.5-53.5v-80.2
		c0-7,5.6-16.9,15.5-16.9h192.7v-102.7c0-46.4-9.8-60.5-29.5-80.2c-19.7-19.7-88.6-25.3-119.6-25.3c-78.8,0-104.1,11.2-126.6,29.5
		c-22.5,18.3-30.9,56.3-30.9,84.4v159c0,42.2,8.4,71.7,35.2,98.5s108.3,26.7,125.2,26.7c16.9,0,73.1,1.4,113.9-28.1
		C714.3,1456.6,705.8,1389.1,705.8,1389.1L705.8,1389.1z M497.6,1214.6c0-22.5,7-56.3,56.3-56.3s53.5,36.6,53.5,56.3v50.6
		c0,8.4-7,16.9-16.9,16.9h-76c-8.4,0-16.9-7-16.9-15.5L497.6,1214.6L497.6,1214.6z M1834,1432.7v-211c0-32.4-1.4-66.1-35.2-90
		c-33.7-23.9-88.6-22.5-109.7-22.5c-21.1,0-91.4,0-123.8,36.6c-32.3,36.6-26.7,71.7-26.7,85.8h92.2c0,0,6.3-47.8,19-60.5
		c12.7-12.7,46.4-26.7,72.5-4.2c9.6,8.3,13.3,19,13.3,30.9v60.5c0,5.6-5.6,14.1-12.6,14.1c0,0-128,2.8-150.5,19.7
		c-22.5,16.9-42.2,28.1-42.2,90c0,61.9,15.5,85.8,33.8,98.5c18.3,12.7,26.7,26.7,109.7,26.7h196.9v-40.8
		C1853.7,1466.4,1834,1452.4,1834,1432.7L1834,1432.7z M1735.6,1456.6c0,3.5-5.6,8.4-9.8,8.4h-48.5c-34.5,0-44.3-29.5-44.3-47.8
		V1363c0-52.7,54.9-51.3,76.7-51.3c21.8,0,26,18.3,26,30.2V1456.6L1735.6,1456.6z M2370.6,1053.6c49.2,0,89.1-15,89.1-33.4
		c0-18.5-39.9-33.4-89.1-33.4c-49.2,0-89.2,15-89.2,33.4C2281.4,1038.6,2321.3,1053.6,2370.6,1053.6z"/>
</g>
</svg>
