<?xml version="1.0" encoding="utf-8"?>
<!-- Generator: Adobe Illustrator 25.2.0, SVG Export Plug-In . SVG Version: 6.00 Build 0)  -->
<svg version="1.1" id="Layer_1" xmlns="http://www.w3.org/2000/svg" xmlns:xlink="http://www.w3.org/1999/xlink" x="0px" y="0px"
	 viewBox="0 0 2500 2500" style="enable-background:new 0 0 2500 2500;" xml:space="preserve">
<style type="text/css">
	.st0{fill-rule:evenodd;clip-rule:evenodd;fill:#FFFFFF;}
	.st1{fill-rule:evenodd;clip-rule:evenodd;fill:#FCFCFC;}
</style>
<g>
	<path class="st0" d="M988,1220.5h90.1v130.1h60v40.1H988V1220.5z M1418.3,1390.6h90.1v-100.1h50v-40h-120.1v0c-10,0-20,9.9-20,20
		V1390.6z M1781.7,1250.5h-158c-73.4,0-73.2,140.1,0,140.1h174.9v-40.1h-140.1v-20h123.2C1817.8,1330.6,1817.3,1250.5,1781.7,1250.5
		L1781.7,1250.5z M1658.5,1290.5h70v20h-70L1658.5,1290.5L1658.5,1290.5z M1185,1390.6h158c73.4,0,73.3-140.1,0-140.1h-174.9v40
		h140.1v20H1185C1148.9,1310.6,1149.4,1390.6,1185,1390.6L1185,1390.6z M1308.2,1350.6h-70.1v-20h70.1V1350.6z M967.9,1250.5H790.8
		c-70.3,0-70.2,140.1,0,140.1h177.2v-40.1H852.8c-33.2,0-33.2-60,0-60h115.1V1250.5L967.9,1250.5z M647.4,1220.6l0.1-0.1h70.2v170.2
		h-90.1v-80.1l-90.1,80.1h-89.1v-80.1l-90.1,80.1H256.7l211.8-170.2h69.1v90.1L647.4,1220.6z M1978.7,1250.5h31.2
		c29.5,0,47.8,18.7,48.8,38.1v102h-80.1v-69.9c0-20.9-20-30.2-60-30.2v100.1h-90.1v-140.1H1978.7L1978.7,1250.5z"/>
	<path class="st1" d="M1893.8,1208.8c328.4-181,582.4-119.6,213.5,103.5C2188.4,1176.7,2085.3,1163.4,1893.8,1208.8z"/>
</g>
</svg>
