<?xml version="1.0" encoding="utf-8"?>
<!-- Generator: Adobe Illustrator 25.2.0, SVG Export Plug-In . SVG Version: 6.00 Build 0)  -->
<svg version="1.1" id="Layer_1" xmlns="http://www.w3.org/2000/svg" xmlns:xlink="http://www.w3.org/1999/xlink" x="0px" y="0px"
	 viewBox="0 0 2500 1571" style="enable-background:new 0 0 2500 1571;" xml:space="preserve">
<style type="text/css">
	.st0{fill:#091923;}
</style>
<path class="st0" d="M1604.1,1443.9h93v21.5h-93V1443.9z M56.8,1313.3l-8.3,216.1v3.8c0,18.3,5.4,22.1,34.6,24.1v10
	c-21.2-1.6-29.6-2.1-41.2-2.1c-11.7,0-20,0.4-41.6,2.1v-10c29.1-2.1,33.3-5.4,34.2-27.9l8.7-204.5v-2.5c0-19.2-5.8-23.3-34.5-25
	V1287c16.2,1.3,22.5,1.7,34.1,1.7c13.2,0.1,26.4-0.6,39.6-2.1l77.4,210.7l78.7-210.7c18.8,1.6,27.5,2.1,40,2.1
	c10.4,0,17.1-0.4,32.9-1.7v10.4c-28.3,1.7-34.6,5.8-34.6,24.5v2.9l4.6,204.5c0.5,22.5,4.2,25.8,34.2,27.9v10
	c-26.2-2.5-36.2-3.4-52.1-3.4c-15.8,0-25.8,0.8-52.1,3.4v-10c28.3-1.6,34.5-6.2,34.5-25.8v-2.1l-3.7-215.7l-68.7,185.7l-5,13.8
	l-5.8,15.4l-5.4,15.9l-4.6,13.7h-6.2l-4.6-13.3l-5.9-16.3l-5.8-16.2l-5-14.6L56.8,1313.3L56.8,1313.3z M369.5,1447.8
	c4.2-47.9,20-72.4,46.6-72.4c27.1,0,40.8,23.3,43.3,72.4H369.5z M423.7,1556.8c-37.9,0-54.6-29.2-55-94.1h124.1
	c-0.8-64.1-27.1-98.3-76.2-98.3c-49.9,0-81.2,40.4-81.2,104.5c0,64.1,31.3,101.6,84.9,101.6c40.8,0,67.5-25.4,72.9-68.3h-16.7
	C471.5,1537.7,453.2,1556.8,423.7,1556.8L423.7,1556.8z M517.6,1379.9v-7.5c23.7-2.1,37.9-4.6,55-9.6c2.1,15.4,2.9,22.1,3.7,34.6
	v4.6c9.2-23.7,27.1-37.5,48.7-37.5c20.8,0,36.2,13.8,36.2,33.8c0,12.1-7.1,20-17.5,20c-9.6,0-17.1-5.8-17.1-14.1
	c0-0.8,0.4-2.5,0.8-4.2l0.8-4.1v-3.8c0-5.8-5-10-12.5-10c-21.6,0-35.4,26.2-35.4,67.5v87c0,17.9,4.1,21.3,29.6,22.5v8.3
	c-22.9-2.1-31.7-2.5-46.2-2.5c-15,0-23.7,0.5-46.6,2.5v-8.3c25.4-1.2,30-4.6,30-22.5v-136.1c-0.4-17.9-2.5-20-24.1-20.4
	L517.6,1379.9L517.6,1379.9z M820.5,1360.8v68.7h-9.2c-7.5-36.3-22.9-53.7-48.3-53.7c-31.3,0-49.6,33.8-49.6,93.3
	c0,58.3,16.2,87.8,48.3,87.8c25.8,0,41.2-18.3,46.2-54.9h17.1c-5.4,44.6-29.2,68.7-66.6,68.7c-48.3,0-81.2-40.8-81.2-101.6
	c0-62.1,33.3-104.5,82.4-104.5c17.9,0,29.2,4.6,42.5,17.5l11.2-21.2L820.5,1360.8L820.5,1360.8L820.5,1360.8z M888.9,1447.8
	c4.2-47.9,20-72.4,46.6-72.4c27.1,0,40.8,23.3,43.3,72.4H888.9z M943,1556.8c-37.9,0-54.5-29.2-55-94.1h124.1
	c-0.8-64.1-27.1-98.3-76.2-98.3c-50,0-81.2,40.4-81.2,104.5c0,64.1,31.2,101.6,85,101.6c40.8,0,67.5-25.4,72.8-68.3h-16.7
	C990.9,1537.7,972.6,1556.8,943,1556.8L943,1556.8z M1127.4,1559.4c-30,0-45.8-31.3-45.8-90.8c0-60.3,14.6-89.9,44.6-89.9
	c30.8,0,46.7,31.6,46.7,92.9C1172.8,1529.4,1157.4,1559.4,1127.4,1559.4L1127.4,1559.4z M1205.7,1524v-240.4
	c-20.8,5.6-39.5,8.9-62.8,11.4v7.1c26.2,0,29.6,2.9,29.6,24.6v72.9c-15.4-25-27.5-32.5-50-32.5c-44.5,0-75.8,42-75.8,102
	c0,60,31.6,102,77,102c23.7,0,40-10.8,51.6-34.1c1.7,15.8,1.7,17.5,5.8,33.3c17-5.4,24.1-7.1,48.7-10l6.2-0.8v-7.1
	C1208.2,1551.4,1205.7,1549.3,1205.7,1524L1205.7,1524z M1286,1447.8c4.2-47.9,20-72.4,46.6-72.4c27.1,0,40.8,23.3,43.3,72.4H1286z
	 M1340.2,1556.8c-37.9,0-54.5-29.2-55-94.1h124.1c-0.8-64.1-27.1-98.3-76.2-98.3c-50,0-81.2,40.4-81.2,104.5
	c0,64.1,31.2,101.6,85,101.6c40.8,0,67.4-25.4,72.8-68.3H1393C1388.1,1537.7,1369.7,1556.8,1340.2,1556.8L1340.2,1556.8z
	 M1444.6,1571v-69.6l9.2-0.4c7.5,37.9,25,56.2,54.1,56.2c24.5,0,42.9-16.3,42.9-37.4c0-14.2-7.9-23.7-28.3-32.9l-15.8-7.1l-19.1-8.7
	c-30.4-14.1-40-25.8-40-50c0-32.9,25.8-55.4,62.5-55.4c16.2,0,28.3,3.7,42.5,13.3l7.1-17.1h7.5v64.5h-9.6
	c-3.8-33.3-17.5-49.1-43.7-49.1c-22.1,0-39.2,15-39.2,34.6c0,16.6,6.2,22.1,44.1,38.7l17.5,7.5c31.6,13.7,42.9,27.1,42.9,51.6
	c0,35-27.9,59.9-67,59.9c-19.2,0-34.2-5-50-17.5l-10,18.7L1444.6,1571L1444.6,1571z M1810.7,1427.3c22.1,0,34.5,3.8,44.1,13.3
	c9.6,9.6,15,27.5,15,47.5c0,41.6-20.8,65-57.9,65h-15c-22.1,0-25.8-3.4-25.8-21.7v-104.1L1810.7,1427.3L1810.7,1427.3z
	 M1771.1,1301.2h35.4c35,0,50.4,17.1,50.4,55.8c0,19.1-4.6,32.9-13.7,43.7c-9.2,10.4-20.4,13.7-43.7,13.7h-28.3L1771.1,1301.2
	L1771.1,1301.2L1771.1,1301.2z M1893.9,1356.1c0-21.7-9.1-40.8-25-52.9c-14.1-10.4-30.4-15-57.5-15H1702v10.4
	c30,1.7,34.1,5,34.1,27.5v201.9c0,22.5-3.4,25.4-34.1,27.9v10h105.3c30.8,0,47.5-3.8,65-14.6c20.8-13.3,34.5-38.7,34.5-64.9
	c0-22.5-9.6-42.9-25.8-55.4c-8.7-6.7-17.9-10.5-32.9-13.3C1878.1,1406.5,1893.9,1385.3,1893.9,1356.1L1893.9,1356.1z M1974.8,1447.8
	c4.2-47.9,20-72.4,46.7-72.4c27,0,40.8,23.3,43.3,72.4H1974.8z M2028.9,1556.8c-37.9,0-54.6-29.2-55-94.1h124.1
	c-0.8-64.1-27.1-98.3-76.2-98.3c-50,0-81.2,40.4-81.2,104.5c0,64.1,31.2,101.6,84.9,101.6c40.8,0,67.5-25.4,72.9-68.3h-16.7
	C2076.8,1537.7,2058.5,1556.8,2028.9,1556.8L2028.9,1556.8z M2120.1,1381.5v-7c24.2-3.4,38.3-6.7,54.9-12.5
	c2.1,9.6,3.4,20.4,4.2,36.2c15-22.5,32.1-32.5,56.2-32.5c25,0,46.6,12.9,55,33.3c4.2,10,6.3,21.7,6.3,37.5v99.9
	c0,17.9,4.2,21.2,29.5,22.5v8.3c-22.1-2.1-30.4-2.5-45.4-2.5c-15.4,0-23.7,0.4-45.4,2.5v-8.3c22.5-0.8,27.9-5,27.9-21.6v-102
	c0-36.2-10.8-50.8-37.5-50.8c-28.3,0-43.3,17.9-43.3,52.1v100.8c0,16.7,5.4,20.8,27.1,21.6v8.3c-21.7-2.1-30-2.5-45-2.5
	c-14.6,0-23.3,0.4-45,2.5v-8.3c25.4-1.2,29.6-4.6,29.6-22.5v-134.9c-0.4-17.1-2.9-19.6-23.7-19.6
	C2124.2,1382,2122.2,1381.5,2120.1,1381.5L2120.1,1381.5z M2342.4,1566l112.8-185.7H2404c-27,0-33.7,5.8-48.7,43.3h-8.3l9.6-54.1
	h143.2l-113.3,185.7h48.7c28.3,0,40-11.2,52.5-49.1h8.7l-10.8,60H2342.4z"/>
<path d="M1759.4,899.5c55.5-92.2,84.7-197.9,84.6-305.5c0-328-265.9-594-594-594c-328,0-594,265.9-594,594
	c-0.2,107.6,29.1,213.3,84.6,305.5l-2.2,1.7l2.6-1c104,172.4,293,287.7,509,287.7c216,0,405-115.3,508.9-287.7l2.6,1L1759.4,899.5z
	 M1771,594c0.1,91-23.7,180.3-69.1,259.2l-367.4-295.9l-75.4-484C1542.6,78.1,1771,309.3,1771,594z M729,594
	C729,309.3,957.4,78.1,1241,73.2l-75.4,484L798.2,853.1C752.8,774.3,728.9,684.9,729,594L729,594z M1250,1114.9
	c-184.9,0-347.1-96.4-439.6-241.5L1250,703.3l439.6,170.1C1597.1,1018.5,1434.9,1114.9,1250,1114.9z"/>
</svg>
