<svg xmlns="http://www.w3.org/2000/svg" viewBox="0 0 7.9818 5.1882"><rect width="7.9818" height="5.1882" fill="#056932"/><path d="M3.28,1.4243l-.0237.0272c-.04.0426-.08.0853-.12.1275-.0117.0122-.025.0228-.0377.0339a.0469.0469,0,0,1-.0273.0115.506.506,0,0,1-.0921,0l-.011-.0032-.002-.01L2.977,1.6l.05-.0411c.0419-.0339.0839-.0676.1255-.1018a.3931.3931,0,0,0,.032-.03.016.016,0,0,0,0-.0261.061.061,0,0,0-.0139-.012A.05.05,0,0,1,3.1466,1.34a.08.08,0,0,1,.0186-.0488.0461.0461,0,0,1,.0227-.0151.0981.0981,0,0,1,.0613,0,.0365.0365,0,0,1,.0211.0169.0813.0813,0,0,1,.012.0369.0531.0531,0,0,1-.0159.0441l-.01.0094a.0117.0117,0,0,0,0,.0182l.0156.0138Zm-.0473-.061a.0332.0332,0,0,0-.02-.0282.0115.0115,0,0,0-.0167.01.0323.0323,0,0,0,.0171.03.0126.0126,0,0,0,.015-.0011Z" fill="#fff"/><path d="M3.9331,2.2267a.0593.0593,0,0,0-.0323-.0116L3.8475,2.21a.5952.5952,0,0,1-.0969-.0118l-.008-.0016a.0368.0368,0,0,0-.0386.04.17.17,0,0,0,.0149.0529.2278.2278,0,0,0,.0984.0978l.0086.0036c.0114.0036.0185-.0005.0191-.0124a.1861.1861,0,0,0-.0016-.03.0691.0691,0,0,1,.0432-.076l.0281-.011.0169-.0076A.0156.0156,0,0,0,3.9331,2.2267Z" fill="none"/><path d="M4.1293,1.9131a.049.049,0,0,0-.0424-.0237L4.0824,1.89l0,0a.0088.0088,0,0,0-.0069.01l.0036.0106a.0559.0559,0,0,0,.0242.0185l.011.0022C4.1294,1.9317,4.1352,1.9227,4.1293,1.9131Z" fill="none"/><path d="M2.6807,1.97a.038.038,0,0,0-.029.0317.0153.0153,0,0,0,.0113.0155.0754.0754,0,0,0,.0344.0017l.0058-.0034a.0265.0265,0,0,0,.0042-.0317A.0247.0247,0,0,0,2.6807,1.97Z" fill="none"/><path d="M4.2866,1.4527A.11.11,0,0,0,4.31,1.486a.0053.0053,0,0,0,.009-.0045.1345.1345,0,0,0-.0085-.033l-.0049-.0032H4.2915l-.0047.003Z" fill="none"/><path d="M5.2981,1.45l.0211.0193,0-.03-.003-.0123c-.0026-.0021-.0062-.0015-.0134,0L5.29,1.4313l.0017.0108Z" fill="none"/><path d="M4.3746,2.1179a.0474.0474,0,0,0-.0366-.0113l-.1191,0H4.1548l-.0643,0-.0712,0H4.0114a.0785.0785,0,0,1-.0209-.0008L3.98,2.1l.0052-.0052.0119-.0038.0186-.0032.0387-.0071.03-.0073a.3225.3225,0,0,0,.06-.0231l.0221-.0126A.1791.1791,0,0,0,4.2007,2.01a.1639.1639,0,0,0,.0448-.1.1506.1506,0,0,0-.0172-.0846.1072.1072,0,0,0-.0373-.04.1885.1885,0,0,0-.0489-.0213.09.09,0,0,0-.0686.0047l-.0056.0028a.1323.1323,0,0,0-.0379.03l-.0058.0073a.1369.1369,0,0,0-.0265.0691.1776.1776,0,0,0-.0009.0194c0,.0169,0,.0338-.0006.0506s-.0045.02-.02.023l-.0022,0-.0034,0a.4844.4844,0,0,0-.1379.0386.4028.4028,0,0,0-.0873.05.1444.1444,0,0,0-.0506.0607l-.001.0013-.0091-.0006L3.68,2.1172a.0526.0526,0,0,1-.0062-.0265.7012.7012,0,0,0-.0536-.23c-.01-.0241-.0223-.0472-.034-.0706a.1026.1026,0,0,0-.033-.0351.012.012,0,0,0-.0151-.0011.0874.0874,0,0,0-.0379.0479.1023.1023,0,0,0,.002.0633c.0138.0351.0265.0705.0406.1054a.5724.5724,0,0,1,.0287.0826.55.55,0,0,1,.0177.1457.1292.1292,0,0,1-.0189.063.5561.5561,0,0,1-.1928.1931.14.14,0,0,1-.078.0188.068.068,0,0,1-.0226-.005l-.0041-.0019a.051.051,0,0,1-.0265-.0321l-.0011-.0033a.0205.0205,0,0,1,.01-.0253c.0216-.0137.0426-.0283.0635-.0429a.4416.4416,0,0,0,.1495-.1761.21.21,0,0,0,.0208-.0913.3782.3782,0,0,0-.0134-.0885.17.17,0,0,0-.0246-.0568c-.0019-.0027-.0059-.0058-.0013-.01l.0266.0058c.0084.0013.0131-.0041.012-.0125l-.0019-.009a.2589.2589,0,0,0-.044-.0858.1186.1186,0,0,0-.0343-.0307A.06.06,0,0,0,3.38,1.7994a.0444.0444,0,0,0-.0189.0036.0705.0705,0,0,0-.04.0363l-.0038.0112a.166.166,0,0,0-.0029.0549.0836.0836,0,0,0,.0285.0586L3.36,1.98a.1923.1923,0,0,1,.034.0466.11.11,0,0,1-.0182.1239l-.0022.0024c-.084.084-.0866.0694-.13.1121l-.0124.007c-.0071-.0031-.0052-.0331.0013-.0546a.1806.1806,0,0,0,.003-.03L3.2339,2.18c-.0079-.002-.0114.0027-.0151.0063a.1347.1347,0,0,0-.0319.05l-.0139.0419-.0091.03a.0492.0492,0,0,1-.023.0324l-.0185.0112-.055.0344-.0094.0059-.0456.0279c-.0338.0206-.0676.0411-.101.0622a.5507.5507,0,0,0-.0859.067l-.0124.0135c-.0079.01-.0032.02.01.02A.13.13,0,0,0,2.8555,2.58.6984.6984,0,0,0,2.9271,2.56c.0645-.0238.1056-.0385.1326-.048a.1978.1978,0,0,0,.06-.025l.0012-.0008c.003-.0024.0127-.01.02-.0075s.0082.0117.0115.0215c0,0-.0014.0094.0229.04a.179.179,0,0,0,.1471.06.1528.1528,0,0,0,.0522-.0119c.0132-.0057.0259-.012.0384-.0187a.4677.4677,0,0,0,.0818-.0552.7594.7594,0,0,0,.1-.1059c.0087-.0108.017-.0219.0262-.0323.0162-.018.0278-.0169.0393.0038a.2869.2869,0,0,0,.0969.1008.4336.4336,0,0,0,.09.0445.5623.5623,0,0,0,.0836.0223l.0147.0027c.0217.0036.0438.0048.0657.0069h.0015a.0181.0181,0,0,0,.0171-.0052.0858.0858,0,0,0,.0206-.0407l0-.0029a.0363.0363,0,0,0-.014-.0341l-.0157-.01-.0129-.0064-.02-.01a.2453.2453,0,0,1-.0405-.0253l-.006-.0051a.038.038,0,0,1-.0071-.0521.081.081,0,0,1,.06-.04l.0044-.0006.0772-.01.0247-.0035.0439-.0069c.0227-.0039.0453-.0082.0677-.0131.03-.0065.0594-.0139.0888-.0227h0a.0322.0322,0,0,0,.0222-.0241.2583.2583,0,0,1,.0511-.1174l.0006-.0085Zm-.296-.2069L4.075,1.9a.0088.0088,0,0,1,.0069-.01l0,0,.0045-.0009a.049.049,0,0,1,.0424.0237c.0059.01,0,.0186-.0155.0186L4.1028,1.93A.0559.0559,0,0,1,4.0786,1.911Zm-.147.3438-.0169.0076-.0281.011a.0691.0691,0,0,0-.0432.076.1861.1861,0,0,1,.0016.03c-.0006.0119-.0077.016-.0191.0124L3.8173,2.388A.2278.2278,0,0,1,3.7189,2.29a.17.17,0,0,1-.0149-.0529.0368.0368,0,0,1,.0386-.04l.008.0016a.5952.5952,0,0,0,.0969.0118l.0533.0049a.0593.0593,0,0,1,.0323.0116A.0156.0156,0,0,1,3.9316,2.2548Z" fill="#fff"/><path d="M5.4853,2.3115c.0023-.03.0043-.06.0043-.09,0-.0775-.0011-.1549-.0021-.2324,0-.0345-.0019-.069-.0026-.1035,0-.0041-.0022-.0093.0035-.0119l.0043.0037a.3642.3642,0,0,1,.06.0766.1226.1226,0,0,1,.0149.0287L5.5717,2a.9276.9276,0,0,1,.0135.2135.4232.4232,0,0,0,.0014.0435.4679.4679,0,0,1,.0024.0774.1591.1591,0,0,1-.0047.0273.0352.0352,0,0,0,.0019.0266c.0007.0011.0049.0079.0109.008s.01-.0065.0122-.0087a.3156.3156,0,0,0,.0615-.0824.1.1,0,0,0,.0108-.0458v0c0-.0317,0-.0632,0-.0656-.0015-.0133-.0039-.0256,0-.0273l.011.0078a.3218.3218,0,0,1,.0277.0393c.0162.0264.0287.0521.0309.0566l0,.0007a.1753.1753,0,0,0,.0311.0536.149.149,0,0,1,.017.0279c.0023.0045.01.0186.0161.0176.0024,0,.0048-.0027.0083-.0128A.1022.1022,0,0,0,5.83,2.3229a.4584.4584,0,0,0,0-.0609c-.0009-.0136-.0023-.0272-.0045-.0408A.1075.1075,0,0,0,5.81,2.18l0-.0007-.0372-.0576L5.7582,2.1l-.0306-.0442-.0451-.0637a.069.069,0,0,1-.0139-.0343c-.0011-.0124-.002-.0249-.0038-.0372-.0087-.06-.017-.119-.0265-.1784-.0051-.0318-.0114-.0634-.0172-.0951L5.6162,1.62c-.004-.0228-.0066-.0457-.01-.0685l-.0007-.0043c-.0006-.0042-.0028-.0178.004-.0228l.0126-.0033a.028.028,0,0,0,.0153-.0089l.0028-.009a.0728.0728,0,0,0-.0014-.0168l-.0055-.0237L5.62,1.422a.893.893,0,0,0-.0565-.1275l-.01-.0152a.02.02,0,0,0-.0288-.0057.1848.1848,0,0,0-.0261.0225.0694.0694,0,0,0-.0215.0563l.0008.0159.0028.0253.0069.0383.0119.0657.0135.0758c.01.0579.02.1158.0284.174a.1765.1765,0,0,1,.003.0251c0,.0089,0,.011-.0016.0114L5.531,1.77l-.0032-.0067a.6812.6812,0,0,0-.0543-.077.1719.1719,0,0,1-.0317-.0631.4167.4167,0,0,1-.0085-.0766c-.0008-.0223,0-.04-.0007-.0427h0a.0082.0082,0,0,1,.0115-.0077l.0023.0009c.012.0049.02.0019.0241-.0084l.0014-.0047a.04.04,0,0,0-.0062-.0285l-.0181-.033-.036-.0654L5.3745,1.29l-.0112-.0146a.0172.0172,0,0,0-.023,0,.0784.0784,0,0,0-.0314.0684l.001.0109.003.035h0a.0049.0049,0,0,1-.0085.0037l-.03-.0329-.0022-.0024a.5805.5805,0,0,0-.0853-.0767l-.0094-.0068a.011.011,0,0,0-.0172.0052.07.07,0,0,0-.0048.02c-.0015.0288-.0021.0576-.0035.0864l0,.0055a.1028.1028,0,0,0,.0123.0529l.01.0161a.3234.3234,0,0,0,.0194.0259l.0065.0083.0438.0551c.035.044.07.0881.1054.1318a.074.074,0,0,1,.0169.0442l.0027.0506.0125.2182c.0024.0421.0039.0843.0077.1263a.436.436,0,0,1-.0167.1638.1507.1507,0,0,1-.0107.0278A.04.04,0,0,1,5.3,2.3246a.15.15,0,0,1-.025-.0271c-.0143-.0191-.0278-.0388-.0412-.0586a.0722.0722,0,0,0-.0251-.0234.0362.0362,0,0,0-.0416.0011.1737.1737,0,0,0-.0278.0242.2386.2386,0,0,0-.0211.0272.3274.3274,0,0,0-.0249.0444l-.0062.0133L5.0625,2.38l-.01.0225-.0145.0318-.0132.0265a.0385.0385,0,0,1-.0559.0144A.0751.0751,0,0,1,4.95,2.4586a.1246.1246,0,0,1-.0135-.0214.2535.2535,0,0,1-.0306-.11V2.3231a.32.32,0,0,1,0-.0672l-.001-.0145-.0063.0008-.006.0065a.1728.1728,0,0,0-.0192.0346.175.175,0,0,0-.01.0349.2731.2731,0,0,0,.0319.1954.2073.2073,0,0,0,.091.0829.0634.0634,0,0,0,.0789-.0123.1219.1219,0,0,0,.0318-.05c.0055-.016.01-.0323.0141-.0486l.0027-.0112.01-.0472.0031-.0114a.162.162,0,0,1,.0147-.0309.0342.0342,0,0,1,.0228-.0172.0359.0359,0,0,1,.0272.0064L5.2,2.38l.0076.0079a.3873.3873,0,0,0,.03.0286.4848.4848,0,0,0,.0461.0313.1183.1183,0,0,0,.031.0135.0966.0966,0,0,0,.0472.0006.12.12,0,0,0,.024-.0086.178.178,0,0,0,.0755-.0649.1683.1683,0,0,0,.0241-.0759Zm-.195-.88.0121-.0046c.0072-.0012.0108-.0018.0134,0l.003.0123,0,.03L5.2981,1.45,5.292,1.4421Z" fill="#fff"/><path d="M2.8756,2.4026a.3.3,0,0,0,.0421-.08L2.9186,2.32A.45.45,0,0,0,2.94,2.143c-.0014-.0186-.0053-.056-.0066-.0687-.0008-.0083-.0023-.0233.0028-.0254l.0125.0071a.0844.0844,0,0,0,.0345.0145.0916.0916,0,0,0,.041-.0026.1431.1431,0,0,0,.0567-.0307c.0217-.0192.0216-.019.046-.0056a.1082.1082,0,0,0,.0283.0108.0972.0972,0,0,0,.0655-.0091l.0038-.002a.0663.0663,0,0,0,.035-.0495c.0026-.0159.0055-.0317.0073-.0477.0035-.03.0063-.061.0092-.0916A.013.013,0,0,0,3.27,1.8278h0l-.0188.0047-.0218.0082-.0082.0043a.032.032,0,0,0-.0134.0232L3.2,1.9043a.0121.0121,0,0,1-.0122.009.0134.0134,0,0,1-.0138-.0066L3.17,1.896a.1635.1635,0,0,0-.01-.0219.0365.0365,0,0,0-.0149-.0133.0392.0392,0,0,0-.0442.0088.1638.1638,0,0,0-.019.0241c-.0052.0075-.0079.0167-.0126.0246a.0332.0332,0,0,1-.01.0118.0526.0526,0,0,1-.0358.007.0191.0191,0,0,1-.0182-.0178c-.0005-.0045,0-.0092,0-.0138a.1228.1228,0,0,0-.0031-.0227.0256.0256,0,0,0-.03-.02.132.132,0,0,0-.02.0052l-.0151.0042-.0038-.0076a.2565.2565,0,0,1-.023-.0942c-.001-.0118-.0116-.1414-.0182-.2047l-.0041-.0327.001-.0084c.0022-.0022.0057-.0011.0135,0a.0782.0782,0,0,0,.0162.0016A.0232.0232,0,0,0,2.94,1.5139a.0255.0255,0,0,0-.0005-.0186l-.0177-.051-.02-.0553-.0051-.013c-.0055-.0135-.0117-.0267-.0178-.04a.0918.0918,0,0,0-.0259-.0349.0253.0253,0,0,0-.0217-.0057.0683.0683,0,0,0-.0636.0655.0979.0979,0,0,0,.0014.0182l0,.0022.0064.0391.01.06.0108.0663.0034.0211q.025.158.05.316a.1221.1221,0,0,1,.002.0208.04.04,0,0,1-.0143.0291.0185.0185,0,0,1-.0278.0012.2576.2576,0,0,1-.02-.02c-.009-.01-.0171-.02-.0266-.0291a.0865.0865,0,0,0-.0948-.02.1366.1366,0,0,0-.09.0983.3235.3235,0,0,0-.0066.1039A.058.058,0,0,0,2.6,2.1142a.1062.1062,0,0,0,.1129,0l.029-.0192c.0068-.0042.0114-.0069.0146-.0051s.0034.0132.0027.02a.07.07,0,0,1-.0041.0174.1838.1838,0,0,1-.0315.0561.3188.3188,0,0,1-.1712.1079l-.0121.0029a.1761.1761,0,0,1-.0417.0031.0819.0819,0,0,1-.0719-.0438.0925.0925,0,0,1-.0125-.0415c-.0018-.0237-.0031-.0474-.0053-.0711l0-.0021c-.0014-.0146-.0034-.0291-.0061-.0434a.0593.0593,0,0,0-.0087-.0211.0181.0181,0,0,0-.0156-.0083.02.02,0,0,0-.0157.009l-.0041.0079a.3538.3538,0,0,0-.0193.0634l-.0034.018a.3257.3257,0,0,0-.0039.0875.2313.2313,0,0,0,.0065.0344.1793.1793,0,0,0,.15.1371.2139.2139,0,0,0,.0521.0032.2506.2506,0,0,0,.0909-.0241l.0062-.003a.2962.2962,0,0,0,.0739-.0517.3424.3424,0,0,0,.0514-.0624.4492.4492,0,0,0,.0622-.16l.0056-.0293a.0309.0309,0,0,1,.0084-.0188c.0012-.001.0069-.0061.0125-.0044a.0085.0085,0,0,1,.0071.0078.1181.1181,0,0,1,.0008.0252.5324.5324,0,0,1-.03.1438A.3681.3681,0,0,1,2.773,2.35l-.008.01a.3556.3556,0,0,1-.0568.0527.3275.3275,0,0,1-.0823.0444.3672.3672,0,0,1-.0886.0205l-.0233.0014A.2447.2447,0,0,1,2.42,2.4632a.12.12,0,0,1-.0831-.0941L2.3335,2.347A.5324.5324,0,0,1,2.3266,2.28a.1291.1291,0,0,0-.0092-.0495l-.0037-.0074-.0013-.0021a.0171.0171,0,0,0-.0141-.0084c-.01-.0005-.0164.0073-.0216.0153a.0992.0992,0,0,0-.0122.0284l-.0019.0079a.5271.5271,0,0,0-.01.135.2305.2305,0,0,0,.02.0847.19.19,0,0,0,.1343.1078.3463.3463,0,0,0,.1458.0024.5359.5359,0,0,0,.171-.0609.5487.5487,0,0,0,.0855-.06l.0134-.0117A.3894.3894,0,0,0,2.8756,2.4026Zm-.1724-.3869-.0058.0034a.0754.0754,0,0,1-.0344-.0017.0153.0153,0,0,1-.0113-.0155.038.038,0,0,1,.029-.0317.0247.0247,0,0,1,.0267.0138A.0265.0265,0,0,1,2.7032,2.0157Z" fill="#fff"/><path d="M2.0767,1.6515a.4045.4045,0,0,0,.0144.096.2142.2142,0,0,0,.0129.0342l.003.0064a.0887.0887,0,0,0,.0375.04l.0151.0062a.0618.0618,0,0,0,.0714-.03A.0925.0925,0,0,0,2.24,1.7814a.2294.2294,0,0,0,.007-.0384c.0021-.0276.0026-.0552.0043-.0827.0009-.0145.0026-.029.0042-.0435A.0712.0712,0,0,1,2.2744,1.58a.0076.0076,0,0,1,.0139.0035.1085.1085,0,0,1,.0022.0227c0,.0545,0,.109,0,.1634a.2124.2124,0,0,0,.0009.0253.09.09,0,0,0,.084.0759l.0209.0015a.0351.0351,0,0,1,.0313.0322l.0024.0275.0049.1106.0021.0462.0018.0419.0019.042.0007.0167.0016.0229c.0012.0082.0066.0113.0153.01a.0372.0372,0,0,0,.0224-.0113.1833.1833,0,0,0,.0207-.0275L2.51,2.1661a.2014.2014,0,0,0,.0076-.0279l.0032-.0172c.0025-.015.0043-.03.0055-.0449s.0019-.0328.0019-.0492c0-.0309-.0015-.0617-.0038-.0926-.0026-.0337-.006-.0672-.0087-.1009a.086.086,0,0,1,.005-.0385A.02.02,0,0,1,2.54,1.7812a.0473.0473,0,0,1,.0325.01L2.6,1.813a.0735.0735,0,0,0,.066.0132A.2818.2818,0,0,0,2.7136,1.81l.0109-.0054a.1455.1455,0,0,0,.0392-.0285l.0005-.0005a.0929.0929,0,0,0,.0272-.0728.7315.7315,0,0,0-.01-.0783.401.401,0,0,0-.0186-.068c-.004-.0107-.0069-.0218-.01-.034a.0075.0075,0,0,1,.0073-.01h0l.0071,0c.0141-.0022.0192-.0116.0142-.0274a.21.21,0,0,0-.0322-.0635.1268.1268,0,0,0-.0447-.0362.0448.0448,0,0,0-.06.0148l-.0009.0013a.0641.0641,0,0,0-.0126.0372v.0043a.1964.1964,0,0,0,.0061.0481L2.64,1.5a.3214.3214,0,0,0,.0453.0919.1526.1526,0,0,1,.0259.08.0368.0368,0,0,1-.002.0166c-.0037.0088-.0126.0113-.0276.0087a.0449.0449,0,0,1-.0191-.0079c-.02-.0156-.04-.0321-.0594-.0482a.0287.0287,0,0,1-.01-.0307l.0014-.0091a.2685.2685,0,0,0,.0029-.0758.155.155,0,0,0-.01-.0375l-.0031-.01L2.58,1.4615a.219.219,0,0,0-.037-.0583l-.0016-.0018a.0272.0272,0,0,0-.0325-.0082.0354.0354,0,0,0-.0157.0153.0691.0691,0,0,0-.0075.0192l-.0007.0038a.2342.2342,0,0,0-.0054.037l0,.0091a.3107.3107,0,0,0,.0225.1239c.0055.0134.0121.0265.0181.04l.0053.0127a.0162.0162,0,0,1-.0083.0175c-.0049.0028-.0107.0008-.0162-.0054a.0649.0649,0,0,1-.0136-.0295.5493.5493,0,0,1-.0155-.12l-.0021-.0406c-.0012-.0157-.0029-.0314-.005-.0471L2.46,1.4l-.0025-.0133c-.0029-.0143-.0068-.0284-.0107-.0425l-.0018-.0067A.074.074,0,0,0,2.42,1.3016a.03.03,0,0,0-.0386-.001.0366.0366,0,0,0-.0156.0317v.017l0,.0425,0,.0325.0005.01a.18.18,0,0,0,.0082.0421l.001.0033.0039.0168c.0128.0539.0183.1089.0263.1635a.0883.0883,0,0,1-.0035.0455c-.006.0158-.016.0183-.0279.0067l-.0072-.009A.0648.0648,0,0,1,2.357,1.66l.0039-.03a.4767.4767,0,0,0-.0016-.1421l-.0007-.0036a.0928.0928,0,0,0-.0116-.0308l-.01-.0112a.0366.0366,0,0,0-.023-.0059.0454.0454,0,0,0-.0317.0126.2.2,0,0,0-.0186.02l-.0073.01a.2152.2152,0,0,0-.03.0686l-.005.0213c-.0053.0235-.01.0473-.0147.0709-.0028.0135-.0047.0272-.008.0406A.0749.0749,0,0,1,2.19,1.702c-.0073.0121-.0182.0125-.0257.0009L2.1574,1.691l-.005-.0129c-.0054-.0176-.01-.0355-.0139-.0535l-.0022-.0108L2.124,1.5513l-.003-.0147A.3725.3725,0,0,0,2.11,1.4991L2.11,1.4968l-.0076-.0141A.0116.0116,0,0,0,2.09,1.4771a.0112.0112,0,0,0-.0088.01L2.08,1.5c-.0015.0157-.0024.0315-.003.0472-.0013.0341-.0009.0682,0,.1023Z" fill="#fff"/><path d="M4.4927,2.3366c.0019-.0149.0023-.03.0027-.045V2.2867q0-.0249,0-.05L4.4949,2.182c-.0016-.0524-.0045-.1047-.0067-.1571l-.003-.085c0-.0034-.0016-.0077.0029-.01l.0022.0005c.0133.004.0179.0244.0191.0287a1.22,1.22,0,0,0,.0924.1747l.0275.0464.025.0418.0249.0419.0121.0216.01.0182a.0075.0075,0,0,0,.0132-.0011.0814.0814,0,0,0,.0077-.0215.5208.5208,0,0,0,.0055-.0536.2826.2826,0,0,0-.0038-.0631.2069.2069,0,0,0-.0171-.0533L4.7009,2.1l-.0052-.01-.0161-.03a3.8367,3.8367,0,0,0-.2-.3325.075.075,0,0,1-.0129-.0362c-.0039-.04-.0086-.0808-.0133-.1211l-.0051-.0367,0-.002.0012-.01.0063-.0042L4.47,1.52l.0059-.0026a.0308.0308,0,0,0,0-.0218l-.0031-.0135a.2879.2879,0,0,0-.0188-.0512.3092.3092,0,0,0-.0219-.0387L4.4234,1.38c-.0223-.0332-.0459-.0656-.0689-.0983l-.0058-.0072a.012.012,0,0,0-.0185,0,.0826.0826,0,0,0-.0233.0338.16.16,0,0,0-.01.0564h0a.0053.0053,0,0,1-.0092.0039.2024.2024,0,0,0-.0186-.02c-.0268-.0233-.0541-.0461-.0814-.0688a.11.11,0,0,0-.0434-.0216.0291.0291,0,0,0-.04.026.2073.2073,0,0,0-.0021.0343.1476.1476,0,0,0,.0332.098l.0274.0347.0294.0391.02.0275L4.221,1.53l.0314.0439c.0344.0485.0685.0971.1029.1455a.069.069,0,0,1,.0125.0317,3.0551,3.0551,0,0,1,.0277.3391q.0015.05.0022.1007l0,.0538,0,.0487-.0007.0487c-.0007.0341-.0017.0682-.0033.1023a.0278.0278,0,0,0,.0028.0191L4.4,2.4659a.03.03,0,0,0,.0205-.0067.1217.1217,0,0,0,.02-.016.1854.1854,0,0,0,.0521-.1057Zm-.2012-.8913h.0138l.0049.0032a.1345.1345,0,0,1,.0085.033.0053.0053,0,0,1-.009.0045.11.11,0,0,1-.0231-.0333l0-.0044Z" fill="#fff"/><path d="M3.3878,1.7261a.0759.0759,0,0,0,.0768.0124.0611.0611,0,0,0,.0275-.028l.0016-.0032c.0035-.0077.0083-.0149.0112-.0228l.0057-.0161.0132-.0406.005-.0189.008-.0348a.0534.0534,0,0,1,.0148-.0281L3.56,1.5436l.0049.007a.1079.1079,0,0,1,.0008.0161c0,.0169,0,.0338.0008.0506a.3729.3729,0,0,0,.0083.0674l.0007.0033a.122.122,0,0,0,.0416.07.1133.1133,0,0,0,.1162.0185l.0082-.0036a.1094.1094,0,0,0,.03-.0216c.0174-.0175.0349-.035.0529-.0519a.036.036,0,0,1,.059.0072l.0153.0259.005.0067a.0715.0715,0,0,0,.0395.0254l.0156.0023a.1783.1783,0,0,0,.0473-.0036L4.0211,1.76a.0675.0675,0,0,0,.0417-.0329c.0066-.0125.0132-.0249.0208-.0369a.1.1,0,0,1,.0176-.0243.0424.0424,0,0,1,.0166-.0074H4.125l.0086.0071-.0079.0216a.0223.0223,0,0,0,.0069.024.0249.0249,0,0,0,.025.0043.0771.0771,0,0,0,.0337-.0241.2811.2811,0,0,0,.0437-.0782.0346.0346,0,0,0,0-.0257.0171.0171,0,0,0-.0215-.01.0728.0728,0,0,0-.0208.0115.0787.0787,0,0,1-.051.0166h-.01a.0351.0351,0,0,1-.0265-.0116L4.1,1.5858a.1445.1445,0,0,1-.01-.0235c-.0038-.0132-.0064-.0268-.01-.04l-.0044-.0162-.011-.0391c-.0025-.0089-.0061-.0175-.0077-.0265s-.0015-.0175.004-.02a.0239.0239,0,0,1,.0146-.0011l.0069,0A.0289.0289,0,0,0,4.1,1.4135a.0259.0259,0,0,0,.0086-.0187.0561.0561,0,0,0-.0069-.0311.2961.2961,0,0,0-.05-.072L4.0373,1.28a.0557.0557,0,0,0-.0235-.0089l-.0085,0A.0684.0684,0,0,0,3.97,1.283a.0671.0671,0,0,0-.0252.0344l-.0019.007-.0052.0341a.1056.1056,0,0,0,.0167.0767.7533.7533,0,0,1,.0394.0756.1758.1758,0,0,1,.0155.0853.0376.0376,0,0,1-.0072.0238.0639.0639,0,0,1-.0368.0226A.0423.0423,0,0,1,3.9146,1.62a.2092.2092,0,0,1-.0155-.0408.4588.4588,0,0,1-.0145-.1069L3.88,1.3707a.2657.2657,0,0,0-.03-.1068l-.0046-.0091L3.8416,1.249a.0138.0138,0,0,0-.022-.0027l-.0084.0088-.0037.005-.0151.0259a.1151.1151,0,0,0-.0076.1171l.003.0078c.0032.01.0069.02.0092.0309a.4058.4058,0,0,1,.0056.1282.0453.0453,0,0,1-.0045.0176.2086.2086,0,0,1-.0373.05.051.051,0,0,1-.05.0131.08.08,0,0,1-.0641-.0626.1031.1031,0,0,1-.0017-.0229c0-.0322.0015-.0644.001-.0966,0-.0257-.0025-.0513-.0045-.0769L3.64,1.3788a.04.04,0,0,0-.0633-.0256.1486.1486,0,0,0-.0257.0232L3.5475,1.38a.3034.3034,0,0,0-.0428.0652.6187.6187,0,0,0-.0356.089l-.0107.0361c-.0032.0119-.0065.0237-.0107.0353l-.0033.0071-.0069.0108a.0129.0129,0,0,1-.02.0011l-.0091-.01-.0055-.0081A.1.1,0,0,1,3.39,1.5725l-.0183-.1c-.0033-.0181-.0062-.0363-.0106-.0542a.1366.1366,0,0,0-.0123-.032.0114.0114,0,0,0-.0216.0008.0983.0983,0,0,0-.0083.0239.6392.6392,0,0,0-.0114.0749.357.357,0,0,0,.0375.1829A.17.17,0,0,0,3.3878,1.7261Z" fill="#fff"/><path d="M5.92,1.881c-.0056-.08-.0132-.16-.0256-.24-.0032-.0206-.0066-.0411-.01-.0615l0-.0021c-.0033-.0182-.0053-.0366-.0085-.0548l-.0027-.0135c-.001-.0042-.0042-.0182.0023-.0236l.0122-.0032L5.9027,1.48,5.9046,1.48a.0154.0154,0,0,0,.01-.02A.0742.0742,0,0,0,5.9073,1.44c-.01-.0166-.0195-.0331-.03-.0491-.0244-.0364-.0493-.0725-.0741-.1088L5.7985,1.277l-.01-.0007-.0089.01a.1832.1832,0,0,0-.0262.0755.3479.3479,0,0,0,.0037.0917l.0005.0028.0075.05.0073.05.0044.0315.0032.0241q.0095.0711.0181.1425c.0072.06.0146.12.02.1805.0066.071.0118.1422.0165.2133.0028.0426.0047.0852.0064.1278l.001.0261a.2355.2355,0,0,1-.0036.031.4391.4391,0,0,1-.0093.0434l-.0028.01a.125.125,0,0,1-.0148.0353.0779.0779,0,0,1-.0189.0188l-.0268.0212a.4408.4408,0,0,1-.0513.039c-.0189.0108-.0195.0076-.0463.0218-.0072.0037-.0215.013-.05.0316-.0169.0109-.0264.0173-.0319.03a.0281.0281,0,0,0-.0021.0212.0278.0278,0,0,0,.0176.0156.063.063,0,0,0,.0322.0022c.0292-.0042.0585-.008.0874-.0138a.2529.2529,0,0,0,.0761-.0281.2214.2214,0,0,0,.0967-.1.3957.3957,0,0,0,.0231-.0664.3732.3732,0,0,0,.0094-.0569l.0012-.0262,0-.0292L5.9283,2.24C5.929,2.12,5.9281,2.0005,5.92,1.881Z" fill="#fff"/><path d="M4.7831,1.6489l-.0118-.0641-.0021-.0106a.3268.3268,0,0,1-.0034-.0432h0a.0176.0176,0,0,1,.0164-.021l.0066-.0023a.0248.0248,0,0,0,.0161-.0157.0336.0336,0,0,0,0-.0136.1868.1868,0,0,0-.0076-.0312.7128.7128,0,0,0-.0612-.1339l-.0128-.0219a.01.01,0,0,0-.016-.0011l-.0089.0134a.2611.2611,0,0,0-.0317.16l.001.009.0052.0409.0065.05.0069.0558.0068.0608c.011.1083.02.2168.03.3252q.0109.12.0212.2406l.0012.0219c0,.0088,0,.0176,0,.0263a.0846.0846,0,0,1-.0077.0331.089.089,0,0,1-.0187.0263l-.035.0336c-.0191.0178-.0387.0351-.059.0516l-.0259.02a.5956.5956,0,0,1-.134.0784l-.0086.0036a.0134.0134,0,0,0-.0064.0158l.003.0086a.0966.0966,0,0,0,.0776.0494l.0133-.0015a.2488.2488,0,0,0,.1034-.04.32.32,0,0,0,.0707-.0663A.6315.6315,0,0,0,4.777,2.419q.0127-.0231.0242-.047l.0072-.0166a.2386.2386,0,0,0,.0158-.0623l.0014-.021.0006-.0441c.001-.1034-.0017-.2068-.0094-.31C4.81,1.8278,4.7986,1.7381,4.7831,1.6489Z" fill="#fff"/><path d="M4.934,2.086l.0037.0405.0035.0455.0029.0413.0024.0412a1.2019,1.2019,0,0,1,.0029.1336.0318.0318,0,0,0,0,.0176l.0041.0084c.0015.0008.0051.0016.015-.0057a.08.08,0,0,0,.0192-.02.2645.2645,0,0,0,.0441-.1151.3051.3051,0,0,0,.0023-.0317c0-.0143,0-.0286,0-.0428l0-.0081-.0023-.0343L5.027,2.113l0-.0029c-.003-.0326-.0053-.0653-.0094-.0978-.01-.08-.02-.16-.0317-.2393-.01-.0685-.0208-.1369-.0315-.2054l-.0033-.0218a.0945.0945,0,0,1-.0017-.0183l.001-.0059A.0154.0154,0,0,1,4.9666,1.51a.131.131,0,0,1,.014,0c.0158.0012.0228-.0091.0171-.0237l-.0008-.0016-.0061-.013-.018-.0321-.0012-.002c-.01-.0176-.0719-.1207-.0853-.15-.001-.0022-.0039-.0088-.009-.01s-.01.005-.0133.0089a.059.059,0,0,0-.0114.0213c-.006.0214-.0121.0429-.0164.0646a.3614.3614,0,0,0-.0072.078.35.35,0,0,0,.0035.042l.0033.0193.0042.0214.009.0448q.02.1023.0393.2048C4.9126,1.9128,4.9271,2.0153,4.934,2.086Z" fill="#fff"/><path d="M5.0774,1.7625l.0029.0038a.3763.3763,0,0,0,.0585.0605l.0081.0065.0144.01.0173.0116.0047.0032a.04.04,0,0,0,.02.0071c.0032,0,.0111.0008.0148-.0039L5.2194,1.85l0-.0063L5.2205,1.83l.0008-.0143.001-.0174.0023-.04a.1809.1809,0,0,1,.0037-.0273.0152.0152,0,0,1,.0169-.0142h.0033l.0045.0006.006.0009H5.26a.0167.0167,0,0,0,.0106-.0019.0114.0114,0,0,0,.0033-.0111l-.0025-.02-.0032-.0161a.1438.1438,0,0,0-.0123-.0321.0418.0418,0,0,0-.0374-.0235.0486.0486,0,0,0-.0333.0111l-.01.0108-.0052.0116L5.1683,1.66l.0008.011.0024.0227a.0087.0087,0,0,1-.009.0087.0168.0168,0,0,1-.018-.0076L5.14,1.6864a.044.044,0,0,0-.0133-.0147A.0262.0262,0,0,0,5.11,1.6681L5.099,1.67l-.0118.0043a.0377.0377,0,0,0-.022.0293.0917.0917,0,0,0,0,.03A.0648.0648,0,0,0,5.0774,1.7625Z" fill="#fff"/><path d="M2.38,1.9216A.1243.1243,0,0,0,2.3435,1.92l-.0183.0029-.0114.0028-.0064.002-.0206.0072a.3426.3426,0,0,0-.0742.0415.4653.4653,0,0,0-.0479.039L2.15,2.03l-.0119.0134-.0108.0136-.0129.019a.2487.2487,0,0,0-.017.0375l0,.0012a.008.008,0,0,0,.01.0087l.0054-.0017.0388-.0173.0126-.0059.0128-.0059.0142-.0067c.0486-.023.1095-.0523.1566-.0755l.0141-.0069.0127-.0063.0124-.0063.0148-.0075a.0263.0263,0,0,0,.013-.0315L2.4138,1.95A.04.04,0,0,0,2.38,1.9216Z" fill="#fff"/><path d="M2.1933,2.4675A.0245.0245,0,0,0,2.17,2.45a.028.028,0,0,0-.0189.01c-.0058.0059-.0053.01-.01.0113a.02.02,0,0,1-.02-.008c-.0046-.006-.0034-.0126-.004-.0233a.573.573,0,0,1-.0006-.0642l.0027-.0329.0015-.014.0014-.0126.0013-.0126.0008-.0079a.0656.0656,0,0,0,.0007-.0247l-.0082-.003a.0438.0438,0,0,0-.0131.0161l-.0128.024-.0073.0157-.0069.017-.0075.022a.361.361,0,0,0-.0157.1123l.0009.0228,0,.0048.0019.0138.0045.0181.0026.0083a.0636.0636,0,0,0,.0414.0406.05.05,0,0,0,.0665-.0211.14.14,0,0,0,.0136-.0267l.0058-.0187.0032-.0193a.1555.1555,0,0,0,.0006-.02V2.4755Z" fill="#fff"/><path d="M5.34,1.8845l-.0041-.013a.01.01,0,0,0-.0154-.005l-.0174.0114-.0089.0064-.01.0068-.01.007-.0074.0053-.0037.0027-.1141.0808-.0112.0079L5.1309,2l-.0027.002L5.1189,2.01a.0323.0323,0,0,0-.0082.0165.0828.0828,0,0,0,.0027.0475.0108.0108,0,0,0,.0134.0064.1637.1637,0,0,0,.0254-.011L5.16,2.0648l.0109-.0064.011-.0067.0127-.0078q.0447-.028.087-.06l.02-.0154.0118-.01.0028-.0023.0071-.0063.0089-.011a.0589.0589,0,0,0,.0087-.037Z" fill="#fff"/><path d="M4.335,2.4513,4.3269,2.45H4.3246l-.01,0-.0111.0011A.1285.1285,0,0,0,4.25,2.47c-.0059.0037-.011.0088-.02.0056a.02.02,0,0,1-.012-.0127.05.05,0,0,1,0-.0277l.0056-.0269a.0144.0144,0,0,0-.0021-.01l-.0077-.0062L4.2093,2.39a.0331.0331,0,0,0-.0205-.0014l-.01.005-.03.0235L4.1332,2.43l-.0119.014a.02.02,0,0,0,.0012.0238.0153.0153,0,0,0,.0141.0069l.0066-.0014.0034-.0012L4.1543,2.47l.0023,0a.0155.0155,0,0,1,.0115.004l.0049.0092.0009.011,0,.0072H4.1733l-.0006.0068v.0055a.0281.0281,0,0,0,.039.0276L4.2166,2.54l.0156-.0062.0061-.0024.0451-.0164.02-.0073.0142-.0051.0007,0L4.33,2.4985l.011-.0026a.0171.0171,0,0,0,.013-.0171A.0264.0264,0,0,0,4.335,2.4513Z" fill="#fff"/><path d="M5.6014,2.556l.0057-.0047a.0313.0313,0,0,0,.0077-.0159.016.016,0,0,0-.004-.0145l-.0079-.0043-.0006,0L5.594,2.5155H5.5931l-.014,0L5.57,2.5145a.0112.0112,0,0,1-.0089-.0172l.0112-.0231.0025-.006.0008-.0026.0007-.0089a.0182.0182,0,0,0-.01-.012L5.56,2.4412l-.01-.0033a.0986.0986,0,0,0-.02-.0028.0921.0921,0,0,0-.0232.0017.0364.0364,0,0,0-.0185.0073.0285.0285,0,0,0-.0082.015l-.0006.0087.003.0093.0053.0066.007.0054.0006,0,.01.0056a.02.02,0,0,1,.0065.03l-.0091.01-.01.0083L5.4856,2.55,5.48,2.555l0,0-.0056.0057-.006.0084a.0191.0191,0,0,0,.0138.03.066.066,0,0,0,.0276-.0006l.0133-.0039.0171-.006.03-.0134.0285-.0175Z" fill="#fff"/><path d="M5.2928,2.19l0,.0047-.0006.0091,0,.0093v.0015a.0445.0445,0,0,0,.0009.016c.0011.0032.0032.01.0087.0116a.0163.0163,0,0,0,.0133-.0029.0418.0418,0,0,0,.014-.0151l.01-.0171.0047-.0123.0021-.0083.0007-.0043.0022-.015a.25.25,0,0,0-.0074-.0929L5.3364,2.06l-.0041-.0117-.0044-.011-.0014-.0034a.0716.0716,0,0,0-.013-.0189.028.028,0,0,0-.0359-.0057.0322.0322,0,0,0-.019.0294v.0077l0,.01.0014.01.0029.01v0l.0186.0492a.1277.1277,0,0,1,.0114.058Z" fill="#fff"/><path d="M3.919,1.821a.019.019,0,0,0-.0161-.0145.02.02,0,0,0-.0138.0027L3.884,1.814l-.0011.0014L3.8805,1.82l-.0028.0077v0l-.0018.0112-.0048.0039L3.8654,1.84l-.0036-.0083-.0029-.011-.002-.0037A.0143.0143,0,0,0,3.845,1.81a.0131.0131,0,0,0-.0122.0076l-.0014.0029-.0043.013-.0062.0053-.0088-.0058-.0007-.0016-.0022-.0087L3.8084,1.82l-.0021-.004-.0048-.0049a.0172.0172,0,0,0-.0177,0,.0256.0256,0,0,0-.0136.0176.0885.0885,0,0,0,.0046.0561.0467.0467,0,0,0,.0195.0227l.0079.0038.0117.0039a.1151.1151,0,0,0,.0337.0043.1276.1276,0,0,0,.03-.0035l.0191-.0066.0044-.0022A.0414.0414,0,0,0,3.9245,1.86l-.0033-.0249Z" fill="#fff"/><path d="M2.5415,1.3836l.0047.0028.016.0067a.0979.0979,0,0,0,.065,0l.0108-.0044.0112-.0067a.0545.0545,0,0,0,.02-.0309.116.116,0,0,0,0-.05.02.02,0,0,0-.0317-.0126l-.0048.005L2.63,1.2978,2.63,1.3l-.0018.0087-.0013.0071h0a.0057.0057,0,0,1-.01.0011l-.003-.0054L2.6083,1.3l-.0026-.0041a.0149.0149,0,0,0-.0219,0l-.003.0052-.0039.0105-.0063.0054-.0091-.0057L2.5607,1.31l-.002-.0087v0L2.5561,1.294l-.005-.0048L2.547,1.2875a.0191.0191,0,0,0-.0205.0074l-.0057.01a.0817.0817,0,0,0,.01.0682Z" fill="#fff"/><path d="M4.5225,1.6907l.0056.0031L4.5437,1.7a.1079.1079,0,0,0,.0619,0l.0019-.0006a.064.064,0,0,0,.02-.01.0512.0512,0,0,0,.0155-.018.0946.0946,0,0,0,.0038-.0674.0185.0185,0,0,0-.03-.0088l-.0035.0034L4.6123,1.6l-.0033.0061-.0024.0065,0,.0012-.002.0127c-.0092.0015-.0106-.0033-.0122-.0075l-.0056-.0163,0-.0009a.0138.0138,0,0,0-.0245,0l0,.0007-.0026.008c-.0017.005-.0017.011-.0085.0124-.004.0009-.0071-.0016-.01-.0075l-.0017-.0045-.0007-.0037V1.6064L4.535,1.6006,4.53,1.5956a.0172.0172,0,0,0-.0231.0038A.0247.0247,0,0,0,4.5,1.611a.0876.0876,0,0,0,.0076.0646A.044.044,0,0,0,4.5225,1.6907Z" fill="#fff"/><path d="M4.502,1.3469l.0041.0083.0008.0013.0047.0068a.3058.3058,0,0,0,.02.0268.1093.1093,0,0,1,.0288.0765l-.0007.01-.0015.0089-.001.0051-.0007.004a.0751.0751,0,0,0,0,.0164.0092.0092,0,0,0,.0145.0055.0486.0486,0,0,0,.012-.0136l.0082-.017.0051-.013.0046-.0149.0015-.0058.003-.0156a.1584.1584,0,0,0-.0027-.0636l-.0061-.0185-.0015-.0033-.0075-.0149-.0083-.0129-.0059-.0078-.0116-.0112a.0428.0428,0,0,0-.05-.0015.028.028,0,0,0-.0131.0254L4.5,1.3374Z" fill="#fff"/><path d="M5.6388,1.4564l.0031.0091.002.0039.003.005.0183.03a.1791.1791,0,0,1,.0226.0787v.0284l0,.0154v0a.0125.0125,0,0,0,.023.0059l.007-.0139.0042-.0148.0031-.0116L5.7286,1.58l.0041-.017.0035-.0148a.0562.0562,0,0,0,0-.0183.3157.3157,0,0,0-.0118-.058l-.0054-.0152L5.7139,1.445l-.0033-.007-.0024-.0042a.1115.1115,0,0,0-.0147-.02.0283.0283,0,0,0-.034-.0068.0317.0317,0,0,0-.0224.0292l0,.01Z" fill="#fff"/><path d="M3.1361,1.712a.0536.0536,0,0,0,.06.038.0488.0488,0,0,0,.0373-.0119.0747.0747,0,0,0,.0176-.0227l.012-.0249.0026-.0088a.0079.0079,0,0,0-.0041-.0091H3.2538l-.0072.0033L3.24,1.68l-.0132.01c-.0126.008-.0229.0042-.0264-.01a.0792.0792,0,0,1,.0011-.041L3.2037,1.63l.0017-.0077,0-.0012,0-.0059-.0045-.0074a.0158.0158,0,0,0-.0122-.0028.0484.0484,0,0,0-.0281.014l-.0022.0021a.0883.0883,0,0,0-.0242.0842Z" fill="#fff"/><path d="M2.1613,1.3084l.0021.0081.0032.0071.0044.0072,0,0,.024.0339a.0582.0582,0,0,1,.0122.0408v.0115H2.2068v.0138l0,.0066.0008.0094c.0009.0057.0044.0113.0122.0091l.0081-.0055.0087-.013L2.24,1.43l.0043-.0109.0043-.0131.0045-.02.0009-.0072a.1331.1331,0,0,0-.0009-.0346l-.0052-.0211-.0058-.0138L2.2405,1.305l-.0048-.0079a.0671.0671,0,0,0-.02-.0185.0422.0422,0,0,0-.0314-.0047.0268.0268,0,0,0-.0229.0319Z" fill="#fff"/><path d="M3.6659,1.3953l0,.0091a.0215.0215,0,0,0,.0125.02.0213.0213,0,0,0,.0256-.005l.0106-.0139.0023-.0048.0012-.0028L3.721,1.39l.0035-.01a.3216.3216,0,0,0,.016-.07l.0009-.01,0-.0054V1.2911l0-.0088-.0029-.0139a.0233.0233,0,0,0-.0182-.0175c-.0114-.002-.0187.0055-.025.0137L3.69,1.2722,3.6858,1.28l-.0036.0087-.003.01-.0019.01-.0091.06-.0014.01-.0011.0075h.0008v.0011Z" fill="#fff"/><path d="M3.0994,2.241h-.001v.0252c0,.0089.0033.0138.0085.0147a.0136.0136,0,0,0,.015-.0086l.0084-.017.0052-.0117.004-.0111L3.14,2.2294a.1107.1107,0,0,0,.0041-.0234.1065.1065,0,0,0-.0056-.04l-.0089-.02-.0069-.0121-.0065-.01-.0035-.0049a.0382.0382,0,0,0-.0208-.0142.0367.0367,0,0,0-.0381.01.0281.0281,0,0,0-.0023.0226l.0028.0072.0039.0061L3.06,2.153l.0035.0037.0175.0179A.0686.0686,0,0,1,3.1,2.2272l-.001.0136Z" fill="#fff"/><path d="M3.419,1.3955a.0242.0242,0,0,0,.0154.0032.0568.0568,0,0,0,.04-.0243l.0071-.0138.001-.0032,0-.0086-.0054-.005L3.469,1.3433l-.0046.0008c-.01.0008-.0138-.0019-.0154-.0122a.04.04,0,0,1,.01-.034l.01-.0119L3.4739,1.28l.0042-.005L3.48,1.2732,3.4821,1.27a.0239.0239,0,0,0,.0024-.0209A.0111.0111,0,0,0,3.47,1.241a.0776.0776,0,0,0-.0223.0116l-.0031.0027-.0071.0064-.0072.0074L3.4217,1.28a.1173.1173,0,0,0-.0235.0528l-.0015.0122,0,.0015-.001.01v.0017l0,.0081A.0506.0506,0,0,0,3.419,1.3955Z" fill="#fff"/><path d="M2.5884,3.65l2.34.0237a.0059.0059,0,0,0,.0045-.01.06.06,0,0,1-.0181-.0458c.0034-.0372.0482-.0592.0559-.0533.0045.0036-.0046.0166.0026.0253.0056.0067.0135.0021.0266.0093a.0381.0381,0,0,1,.0181.0195.0446.0446,0,0,1-.0034.03c-.0061.0176-.0121.0191-.0109.0236.0043.016.0824,0,.1865.0093.0226.0021.0245.0034.0412.004.0691.0024.0842-.0183.12-.01a.1353.1353,0,0,1,.0819.0742.1988.1988,0,0,1,.0107.0931.1194.1194,0,0,1-.012.0638.0916.0916,0,0,1-.0532.0373.06.06,0,0,1-.0439,0,.055.055,0,0,1-.0267-.0307L5.303,3.909H5.0154L5.01,3.9119a.0446.0446,0,0,1-.0317.0237c-.0222.0011-.0369-.0267-.0425-.0372a.126.126,0,0,1-.004-.0961.006.006,0,0,0-.0057-.0077H2.8515a.36.36,0,0,1-.2155-.08.3294.3294,0,0,1-.0524-.0557A.0059.0059,0,0,1,2.5884,3.65Z" fill="#fff"/><path d="M5.02,3.8025l.2565-.0006a.02.02,0,0,1,.0177.0113.0363.0363,0,0,1,.0035.0156.0349.0349,0,0,1-.0077.0217.0414.0414,0,0,1-.0329.0112c-.0454,0-.0592-.0354-.0938-.03-.0135.0022-.01.0074-.0359.0161a.1524.1524,0,0,1-.0585.01c-.0207-.0011-.0639-.0086-.0682-.03a.0208.0208,0,0,1,.0012-.0118A.0194.0194,0,0,1,5.02,3.8025Z" fill="#006c35"/></svg>