<svg xmlns="http://www.w3.org/2000/svg" viewBox="0 0 7.9818 5.1882"><polygon points="4.39 1.729 4.39 2.075 4.656 2.075 4.701 2.075 7.982 2.075 7.982 1.729 6.206 1.729 7.982 0.579 7.982 0.511 7.982 0.38 7.982 0 7.972 0 5.32 1.729 5.314 1.729 4.721 1.729 7.388 0 7.084 0 4.656 1.583 4.656 0 4.39 0 4.39 1.729" fill="#fff"/><polygon points="3.326 2.075 3.592 2.075 3.592 1.729 3.592 0 3.326 0 3.326 1.583 0.898 0 0 0 2.667 1.729 2.069 1.729 0 0.38 0 0.579 1.776 1.729 0 1.729 0 2.075 3.326 2.075" fill="#fff"/><polygon points="3.326 1.583 3.326 0 0.898 0 3.326 1.583" fill="#036"/><polygon points="2.069 1.729 2.667 1.729 0 0 0 0.38 2.069 1.729" fill="#cf142b"/><polygon points="0 0.579 0 0.652 0 1.541 0 1.544 0 1.729 1.776 1.729 0 0.579" fill="#036"/><polygon points="4.656 1.583 7.084 0 4.656 0 4.656 1.583" fill="#036"/><polygon points="4.721 1.729 5.314 1.729 5.32 1.729 7.972 0 7.388 0 4.721 1.729" fill="#cf142b"/><polygon points="6.206 1.729 7.982 1.729 7.982 1.403 7.982 0.579 6.206 1.729" fill="#036"/><polygon points="3.326 3.113 3.592 3.113 3.592 3.459 3.592 5.188 4.39 5.188 4.39 3.459 4.39 3.113 4.656 3.113 4.701 3.113 7.982 3.113 7.982 3.113 7.982 2.238 7.982 2.075 7.982 2.075 4.701 2.075 4.656 2.075 4.39 2.075 4.39 1.729 4.39 0 3.592 0 3.592 1.729 3.592 2.075 3.326 2.075 0 2.075 0 2.075 0 2.378 0 3.113 0 3.113 3.326 3.113" fill="#cf142b"/><polygon points="4.701 3.113 4.656 3.113 4.39 3.113 4.39 3.459 4.39 5.188 4.656 5.188 4.656 4.038 4.656 3.839 4.656 3.606 7.084 5.188 7.323 5.188 7.388 5.188 7.972 5.188 7.982 5.188 5.315 3.459 5.32 3.459 5.554 3.459 5.909 3.459 5.914 3.459 7.982 4.808 7.982 4.609 6.206 3.459 7.982 3.459 7.982 3.13 7.982 3.113 4.701 3.113" fill="#fff"/><polygon points="2.656 3.459 2.667 3.459 2.667 3.459 3.251 3.459 3.255 3.459 0.587 5.188 0.599 5.188 0.658 5.188 0.898 5.188 3.326 3.606 3.326 5.188 3.592 5.188 3.592 3.459 3.592 3.113 3.326 3.113 0 3.113 0 3.268 0 3.271 0 3.459 1.776 3.459 0 4.609 0 4.808 0 4.97 0 4.973 0 5.041 0 5.188 2.656 3.459" fill="#fff"/><polygon points="3.326 3.606 0.898 5.188 1.257 5.188 1.549 5.188 3.326 5.188 3.326 3.606" fill="#036"/><polygon points="3.255 3.459 3.251 3.459 2.667 3.459 2.667 3.459 2.656 3.459 0 5.188 0.587 5.188 3.255 3.459" fill="#cf142b"/><polygon points="1.776 3.459 0 3.459 0 4.081 0 4.609 1.776 3.459" fill="#036"/><polygon points="4.656 3.606 4.656 3.839 4.656 4.038 4.656 5.188 6.432 5.188 6.725 5.188 7.084 5.188 4.656 3.606" fill="#036"/><polygon points="5.914 3.459 5.909 3.459 5.554 3.459 5.32 3.459 5.315 3.459 7.982 5.188 7.982 5.041 7.982 4.832 7.982 4.808 5.914 3.459" fill="#cf142b"/><polygon points="7.982 4.609 7.982 3.94 7.982 3.459 6.206 3.459 7.982 4.609" fill="#036"/></svg>